<svg viewBox="0 0 1418 819" xmlns="http://www.w3.org/2000/svg"><path d="m1407 766.42-905.42-759.75a29.93 29.93 0 0 0 -38.47 45.87l905.41 759.75a30.19 30.19 0 0 0 19.33 7.05 30 30 0 0 0 19.15-52.92zm-452.63 0-905.58-759.75c-12.6-10.75-31.42-8.9-42.17 3.7a30 30 0 0 0 3.7 42.17l905.58 759.75a29.81 29.81 0 0 0 42.17-3.7 30 30 0 0 0 -3.7-42.17zm301.75 0-754.54-633.07a29.93 29.93 0 0 0 -38.47 45.87l754.54 633.07a29.93 29.93 0 1 0 38.47-45.87zm-754.54 0-452.79-379.87a29.93 29.93 0 1 0 -38.47 45.86l452.79 379.88a29.93 29.93 0 0 0 38.47-45.87zm-301.74 0-151-126.68a29.93 29.93 0 1 0 -38.47 45.87l150.82 126.68a30 30 0 1 0 38.65-45.87zm905.41 0-603.67-506.56a29.93 29.93 0 0 0 -38.47 45.87l603.66 506.56a29.75 29.75 0 0 0 19.16 7.05 30 30 0 0 0 19.32-52.92zm-452.79 0-603.67-506.56a29.93 29.93 0 1 0 -38.47 45.87l603.68 506.56a29.94 29.94 0 0 0 38.48-45.87zm-301.75 0-301.92-253.19a29.73 29.73 0 0 0 -42.17 3.69 30 30 0 0 0 3.7 42.17l301.91 253.2a29.75 29.75 0 0 0 19.16 7.05 30 30 0 0 0 19.32-52.92zm452.62 0-754.54-633.07a29.74 29.74 0 0 0 -42.17 3.7 30 30 0 0 0 3.7 42.17l754.54 633.07a30.2 30.2 0 0 0 42.17-3.7 29.88 29.88 0 0 0 -3.7-42.17zm603.67-126.68-452.63-379.88a30 30 0 1 0 -38.64 45.87l452.79 379.88a29.94 29.94 0 0 0 38.48-45.87zm0-126.68-452.63-379.71a30 30 0 1 0 -38.64 45.87l452.79 379.87a30 30 0 0 0 42.17-3.86 30 30 0 0 0 -3.69-42.17zm0-126.51-452.63-379.88a30 30 0 1 0 -38.64 45.87l452.79 379.87a29.93 29.93 0 0 0 38.48-45.86z" fill="#ec5e47"/><path d="m59.38 789.44a29.83 29.83 0 1 1 -29.91-29.91 29.87 29.87 0 0 1 29.91 29.91z" fill="#de3728"/><path d="m203.53 808.59a30 30 0 0 1 -42.34 3.7l-150.87-126.68a29.93 29.93 0 1 1 38.47-45.87l151.05 126.68a30 30 0 0 1 3.69 42.17z" fill="#d98265"/><path d="m354.41 808.59a30.22 30.22 0 0 1 -23 10.75 29.75 29.75 0 0 1 -19.16-7.05l-301.93-253.2a30 30 0 0 1 -3.7-42.17 29.73 29.73 0 0 1 42.17-3.69l301.92 253.19a30 30 0 0 1 3.7 42.17z" fill="#d98265"/><path d="m505.28 808.59a29.81 29.81 0 0 1 -42.17 3.7l-452.79-379.88a29.93 29.93 0 1 1 38.47-45.86l452.79 379.87a29.88 29.88 0 0 1 3.7 42.17z" fill="#d98265"/><g fill="#ec5e47"><path d="m656.15 808.59a29.81 29.81 0 0 1 -42.17 3.7l-603.66-506.56a29.93 29.93 0 1 1 38.47-45.87l603.67 506.56a29.87 29.87 0 0 1 3.69 42.17z"/><path d="m807 808.59a30.2 30.2 0 0 1 -42.17 3.7l-754.51-633.07a30 30 0 0 1 -3.7-42.17 29.74 29.74 0 0 1 42.17-3.7l754.54 633.07a29.88 29.88 0 0 1 3.67 42.17z"/><path d="m958.07 808.59a29.81 29.81 0 0 1 -42.17 3.7l-905.58-759.75a30 30 0 0 1 -3.7-42.17c10.75-12.6 29.57-14.45 42.17-3.7l905.58 759.75a30 30 0 0 1 3.7 42.17z"/></g><path d="m1109 808.59a30.22 30.22 0 0 1 -23 10.75 29.75 29.75 0 0 1 -19.16-7.05l-603.73-506.56a29.93 29.93 0 0 1 38.47-45.87l603.67 506.56a30 30 0 0 1 3.75 42.17z" fill="#67c4c4"/><path d="m1259.82 808.59a29.81 29.81 0 0 1 -42.17 3.7l-754.54-633.07a29.93 29.93 0 0 1 38.47-45.87l754.54 633.07a29.89 29.89 0 0 1 3.7 42.17z" fill="#67c4c4"/><path d="m1410.69 808.59a29.86 29.86 0 0 1 -22.84 10.75 30.19 30.19 0 0 1 -19.33-7.05l-905.41-759.75a29.93 29.93 0 0 1 38.47-45.87l905.42 759.75a29.73 29.73 0 0 1 3.69 42.17z" fill="#67c4c4"/><path d="m1410.69 681.91a29.81 29.81 0 0 1 -42.17 3.7l-452.79-379.88a30 30 0 1 1 38.64-45.87l452.63 379.88a30 30 0 0 1 3.69 42.17z" fill="#f6d289"/><path d="m1410.69 555.23a30 30 0 0 1 -42.17 3.86l-452.79-379.87a30 30 0 1 1 38.64-45.87l452.63 379.71a30 30 0 0 1 3.69 42.17z" fill="#f6d289"/><path d="m1410.69 428.72a29.79 29.79 0 0 1 -42.17 3.69l-452.79-379.87a30 30 0 1 1 38.64-45.87l452.63 379.88a30 30 0 0 1 3.69 42.17z" fill="#f6d289"/><path d="m199.84 766.42a30 30 0 0 1 -38.65 45.87l-150.87-126.68a29.93 29.93 0 1 1 38.47-45.87z" fill="#de3728"/><path d="m350.71 766.42a29.94 29.94 0 1 1 -38.48 45.87l-301.91-253.2a30 30 0 0 1 -3.7-42.17 29.73 29.73 0 0 1 42.17-3.69z" fill="#de3728"/><path d="m501.58 766.42a29.93 29.93 0 1 1 -38.47 45.87l-452.79-379.88a29.93 29.93 0 1 1 38.47-45.86z" fill="#de3728"/><path d="m652.46 766.42a29.94 29.94 0 1 1 -38.46 45.87l-603.68-506.56a29.93 29.93 0 1 1 38.47-45.87z" fill="#ec5e47"/><path d="m803.33 766.42a29.84 29.84 0 0 1 -19.33 52.76 29.53 29.53 0 0 1 -19.15-6.89l-754.53-633.07a30 30 0 0 1 -3.7-42.17 29.74 29.74 0 0 1 42.17-3.7z" fill="#ec5e47"/><path d="m954.37 766.42a30 30 0 0 1 -19.32 52.92 29.7 29.7 0 0 1 -19.15-7.05l-905.58-759.75a30 30 0 0 1 -3.7-42.17c10.75-12.6 29.57-14.45 42.17-3.7z" fill="#ec5e47"/><path d="m1105.25 766.42a29.94 29.94 0 1 1 -38.48 45.87l-603.66-506.56a29.93 29.93 0 0 1 38.47-45.87z" fill="#67c4c4"/><path d="m1256.12 766.42a29.93 29.93 0 1 1 -38.47 45.87l-754.54-633.07a29.93 29.93 0 0 1 38.47-45.87z" fill="#67c4c4"/><path d="m1410.69 808.59a29.86 29.86 0 0 1 -22.84 10.75 30.19 30.19 0 0 1 -19.33-7.05l-905.41-759.75a29.93 29.93 0 0 1 38.47-45.87l905.42 759.75a29.73 29.73 0 0 1 3.69 42.17z" fill="#67c4c4"/><path d="m915.73 305.73a30 30 0 1 1 38.64-45.87l452.63 379.88a29.94 29.94 0 1 1 -38.48 45.87z" fill="#f6d289"/><path d="m915.73 179.22a30 30 0 1 1 38.64-45.87l452.63 379.71a30 30 0 0 1 -19.32 52.94 30.47 30.47 0 0 1 -19.16-6.89z" fill="#f6d289"/><path d="m915.73 52.54a30 30 0 1 1 38.64-45.87l452.63 379.88a29.93 29.93 0 1 1 -38.48 45.86z" fill="#f6d289"/></svg>