<svg viewBox="0 0 1737 1276" xmlns="http://www.w3.org/2000/svg"><path d="m1568 766.42-905.42-759.75a29.93 29.93 0 0 0 -38.47 45.87l905.41 759.75a30.19 30.19 0 0 0 19.33 7.05 30 30 0 0 0 19.15-52.92zm-452.63 0-905.58-759.75c-12.6-10.75-31.42-8.9-42.17 3.7a30 30 0 0 0 3.7 42.17l905.58 759.75a29.81 29.81 0 0 0 42.17-3.7 30 30 0 0 0 -3.7-42.17zm301.75 0-754.54-633.07a29.93 29.93 0 0 0 -38.47 45.87l754.54 633.07a29.93 29.93 0 1 0 38.47-45.87zm-754.54 0-452.79-379.87a29.93 29.93 0 1 0 -38.47 45.86l452.79 379.88a29.93 29.93 0 0 0 38.47-45.87zm-301.74 0-151-126.68a29.93 29.93 0 1 0 -38.47 45.87l150.82 126.68a30 30 0 1 0 38.65-45.87zm905.41 0-603.67-506.56a29.93 29.93 0 0 0 -38.47 45.87l603.66 506.56a29.75 29.75 0 0 0 19.16 7.05 30 30 0 0 0 19.32-52.92zm-452.79 0-603.67-506.56a29.93 29.93 0 1 0 -38.47 45.87l603.68 506.56a29.94 29.94 0 0 0 38.48-45.87zm-301.75 0-301.92-253.19a29.73 29.73 0 0 0 -42.17 3.69 30 30 0 0 0 3.7 42.17l301.91 253.2a29.75 29.75 0 0 0 19.16 7.05 30 30 0 0 0 19.32-52.92zm452.62 0-754.54-633.07a29.74 29.74 0 0 0 -42.17 3.7 30 30 0 0 0 3.7 42.17l754.54 633.07a30.2 30.2 0 0 0 42.17-3.7 29.88 29.88 0 0 0 -3.7-42.17zm603.67-126.68-452.63-379.88a30 30 0 1 0 -38.64 45.87l452.79 379.88a29.94 29.94 0 0 0 38.48-45.87zm0-126.68-452.63-379.71a30 30 0 1 0 -38.64 45.87l452.79 379.87a30 30 0 0 0 42.17-3.86 30 30 0 0 0 -3.69-42.17zm0-126.51-452.63-379.88a30 30 0 1 0 -38.64 45.87l452.79 379.87a29.93 29.93 0 1 0 38.48-45.86z" fill="#ec5e47"/><path d="m220.38 789.44a29.83 29.83 0 1 1 -29.91-29.91 29.87 29.87 0 0 1 29.91 29.91z" fill="#de3728"/><path d="m364.53 808.59a30 30 0 0 1 -42.34 3.7l-150.87-126.68a29.93 29.93 0 1 1 38.47-45.87l151 126.68a30 30 0 0 1 3.74 42.17z" fill="#d98265"/><path d="m515.41 808.59a30.22 30.22 0 0 1 -23 10.75 29.75 29.75 0 0 1 -19.16-7.05l-301.93-253.2a30 30 0 0 1 -3.7-42.17 29.73 29.73 0 0 1 42.17-3.69l301.92 253.19a30 30 0 0 1 3.7 42.17z" fill="#d98265"/><path d="m666.28 808.59a29.81 29.81 0 0 1 -42.17 3.7l-452.79-379.88a29.93 29.93 0 1 1 38.47-45.86l452.79 379.87a29.88 29.88 0 0 1 3.7 42.17z" fill="#d98265"/><path d="m817.15 808.59a29.81 29.81 0 0 1 -42.17 3.7l-603.66-506.56a29.93 29.93 0 1 1 38.47-45.87l603.67 506.56a29.87 29.87 0 0 1 3.69 42.17z" fill="#ec5e47"/><path d="m968 808.59a30.2 30.2 0 0 1 -42.17 3.7l-754.51-633.07a30 30 0 0 1 -3.7-42.17 29.74 29.74 0 0 1 42.17-3.7l754.54 633.07a29.88 29.88 0 0 1 3.67 42.17z" fill="#ec5e47"/><path d="m1119.07 808.59a29.81 29.81 0 0 1 -42.17 3.7l-905.58-759.75a30 30 0 0 1 -3.7-42.17c10.75-12.6 29.57-14.45 42.17-3.7l905.58 759.75a30 30 0 0 1 3.7 42.17z" fill="#ec5e47"/><path d="m1270 808.59a30.22 30.22 0 0 1 -23 10.75 29.75 29.75 0 0 1 -19.16-7.05l-603.73-506.56a29.93 29.93 0 0 1 38.47-45.87l603.67 506.56a30 30 0 0 1 3.75 42.17z" fill="#67c4c4"/><path d="m1420.82 808.59a29.81 29.81 0 0 1 -42.17 3.7l-754.54-633.07a29.93 29.93 0 0 1 38.47-45.87l754.54 633.07a29.89 29.89 0 0 1 3.7 42.17z" fill="#67c4c4"/><path d="m1571.69 808.59a29.86 29.86 0 0 1 -22.84 10.75 30.19 30.19 0 0 1 -19.33-7.05l-905.41-759.75a29.93 29.93 0 0 1 38.47-45.87l905.42 759.75a29.73 29.73 0 0 1 3.69 42.17z" fill="#67c4c4"/><path d="m1571.69 681.91a29.81 29.81 0 0 1 -42.17 3.7l-452.79-379.88a30 30 0 1 1 38.64-45.87l452.63 379.88a30 30 0 0 1 3.69 42.17z" fill="#f6d289"/><path d="m1571.69 555.23a30 30 0 0 1 -42.17 3.86l-452.79-379.87a30 30 0 1 1 38.64-45.87l452.63 379.71a30 30 0 0 1 3.69 42.17z" fill="#f6d289"/><path d="m1571.69 428.72a29.79 29.79 0 0 1 -42.17 3.69l-452.79-379.87a30 30 0 1 1 38.64-45.87l452.63 379.88a30 30 0 0 1 3.69 42.17z" fill="#f6d289"/><path d="m360.84 766.42a30 30 0 0 1 -38.65 45.87l-150.87-126.68a29.93 29.93 0 1 1 38.47-45.87z" fill="#de3728"/><path d="m511.71 766.42a29.94 29.94 0 1 1 -38.48 45.87l-301.91-253.2a30 30 0 0 1 -3.7-42.17 29.73 29.73 0 0 1 42.17-3.69z" fill="#de3728"/><path d="m662.58 766.42a29.93 29.93 0 1 1 -38.47 45.87l-452.79-379.88a29.93 29.93 0 1 1 38.47-45.86z" fill="#de3728"/><path d="m813.46 766.42a29.94 29.94 0 1 1 -38.46 45.87l-603.68-506.56a29.93 29.93 0 1 1 38.47-45.87z" fill="#ec5e47"/><path d="m964.33 766.42a29.84 29.84 0 0 1 -19.33 52.76 29.53 29.53 0 0 1 -19.15-6.89l-754.53-633.07a30 30 0 0 1 -3.7-42.17 29.74 29.74 0 0 1 42.17-3.7z" fill="#ec5e47"/><path d="m1115.37 766.42a30 30 0 0 1 -19.32 52.92 29.7 29.7 0 0 1 -19.15-7.05l-905.58-759.75a30 30 0 0 1 -3.7-42.17c10.75-12.6 29.57-14.45 42.17-3.7z" fill="#ec5e47"/><path d="m1266.25 766.42a29.94 29.94 0 1 1 -38.48 45.87l-603.66-506.56a29.93 29.93 0 0 1 38.47-45.87z" fill="#67c4c4"/><path d="m1417.12 766.42a29.93 29.93 0 1 1 -38.47 45.87l-754.54-633.07a29.93 29.93 0 0 1 38.47-45.87z" fill="#67c4c4"/><path d="m1571.69 808.59a29.86 29.86 0 0 1 -22.84 10.75 30.19 30.19 0 0 1 -19.33-7.05l-905.41-759.75a29.93 29.93 0 0 1 38.47-45.87l905.42 759.75a29.73 29.73 0 0 1 3.69 42.17z" fill="#67c4c4"/><path d="m1076.73 305.73a30 30 0 1 1 38.64-45.87l452.63 379.88a29.94 29.94 0 1 1 -38.48 45.87z" fill="#f6d289"/><path d="m1076.73 179.22a30 30 0 1 1 38.64-45.87l452.63 379.71a30 30 0 0 1 -19.32 52.94 30.47 30.47 0 0 1 -19.16-6.89z" fill="#f6d289"/><path d="m1076.73 52.54a30 30 0 1 1 38.64-45.87l452.63 379.88a29.93 29.93 0 1 1 -38.48 45.86z" fill="#f6d289"/><g fill="#fff"><path d="m59.54 1065.92h-36.54l-7.34 25.41h-15.21l32.91-109.6h15.92l32.91 109.6h-15.19zm-32.45-14.24h28.32l-14.09-48.37z"/><path d="m165.31 1077.09v14.24h-67v-109.6h67.05v14.27h-51.79v33.37h40.72v14.24h-40.72v33.52z"/><path d="m246.13 1077.09v14.24h-67v-14.24h25.87v-81.09h-25.92v-14.27h67v14.27h-25.82v81.13z"/><path d="m398.9 1061.63a31 31 0 0 1 -30.9 30.92h-11.35a31 31 0 0 1 -30.92-30.92v-50.21a31 31 0 0 1 30.92-30.92h14.35a31 31 0 0 1 27.86 17.6l-13.63 6.28a15.06 15.06 0 0 0 -14.23-9.64h-14.35c-9.19 0-15.62 7.5-15.62 16.68v50.21c0 9.19 6.43 16.69 15.62 16.69h11.35c9.18 0 15.61-7.5 15.61-16.69v-18.06h-16.71v-14.24h32z"/><path d="m420.32 1091.33v-86h8.88l2.15 8.57c4.28-6 11-9.8 19.9-9.8a31.18 31.18 0 0 1 27.86 17l-13 6.12a17.05 17.05 0 0 0 -14.84-8.88c-9.19 0-15.62 7.5-15.62 16.69v56.33z"/><path d="m519.21 1092.55a31 31 0 0 1 -30.92-30.92v-26.63a31 31 0 0 1 30.92-30.93h6.79a31 31 0 0 1 30.87 30.93v26.63a31 31 0 0 1 -30.87 30.92zm6.74-14.23c9.18 0 15.61-7.5 15.61-16.69v-26.63c0-9.19-6.43-16.69-15.61-16.69h-6.74c-9.18 0-15.61 7.5-15.61 16.69v26.63c0 9.19 6.43 16.69 15.61 16.69z"/><path d="m595.13 1061.63c0 9.19 6.43 16.69 15.62 16.69h6.73c9.19 0 15.61-7.5 15.61-16.69v-56.33h15.31v86h-8.88l-2.14-8.57a23.94 23.94 0 0 1 -19.9 9.79h-6.73a31 31 0 0 1 -30.93-30.92v-56.3h15.31z"/><path d="m672.89 1123.47v-118.17h8.88l2.14 8.57c4.29-6 11-9.8 19.9-9.8h6.74a31 31 0 0 1 30.92 30.93v26.63a31 31 0 0 1 -30.92 30.92h-6.74c-6.43 0-11.63-1.83-15.61-5.2v36.12zm37.66-45.15c9.18 0 15.61-7.5 15.61-16.69v-26.63c0-9.19-6.43-16.69-15.61-16.69h-6.74c-9 0-15.61 7.2-15.61 16.07v27.25c0 9.19 6.43 16.69 15.61 16.69z"/><path d="m880 1082c-9 8.11-16.54 10.56-30.31 10.56-15.31 0-27.1-11.17-27.1-26.48 0-11.48 8.12-25 25.57-25h27.7v-8.08c0-8.88-4.74-14.7-13.62-14.7h-9.34a17.93 17.93 0 0 0 -15.46 8.88l-13-6.12a32.12 32.12 0 0 1 28.47-17h8.88c17.15 0 29.39 11.33 29.39 28.94v58.32h-8.88zm-31.38-26.63c-6.89 0-10.72 4.13-10.72 11 0 8.42 6 11.94 13.62 11.94 17.61 0 24.34-6.74 24.34-16.69v-6.27z"/><path d="m971.53 1079.08a25.17 25.17 0 0 1 -47.45-11.63v-41.45h-13v-14.23h13v-30h15.31v30h28v14.23h-28v41.49c0 6 3.82 10.87 9.79 10.87a9.3 9.3 0 0 0 8.73-5.67z"/><path d="m1101.79 1065.92h-36.58l-7.35 25.41h-15.15l32.91-109.6h15.92l32.91 109.6h-15.16zm-32.45-14.24h28.32l-14.08-48.37z"/><path d="m1140.52 981.73h42.25a31 31 0 0 1 30.92 30.92v47.76a31 31 0 0 1 -30.92 30.92h-42.25zm42.25 95.36c9.18 0 15.61-7.5 15.61-16.68v-47.76c0-9.19-6.43-16.69-15.61-16.69h-26.94v81.13z"/><path d="m1303.7 1077.09v14.24h-67v-109.6h67v14.27h-51.7v33.37h40.71v14.24h-40.71v33.52z"/><path d="m1384.21 1077.09 53-50.21c3.37-3.21 4.9-8.11 4.9-13.31 0-10.41-7.35-18.83-17.76-18.83h-12.24a15.08 15.08 0 0 0 -14.24 9.64l-13.62-6.28a31 31 0 0 1 27.86-17.6h12.24a33 33 0 0 1 22.81 57l-41.79 39.64h52.05v14.24h-73.17z"/><path d="m1508.5 1092.55a31 31 0 0 1 -30.92-30.92v-50.21a31 31 0 0 1 30.92-30.92h11.33a31 31 0 0 1 30.92 30.92v50.21a31 31 0 0 1 -30.92 30.92zm-15.61-82.35v51.43c0 9.19 6.43 16.69 15.61 16.69h11.33a16.07 16.07 0 0 0 6.12-1.23zm42.4 53a4.82 4.82 0 0 0 .15-1.53v-50.21c0-9.18-6.43-16.68-15.61-16.68h-11.33a14 14 0 0 0 -6.27 1.38z"/><path d="m1571.11 1077.09h28.77v-75.31l-18.36 19-10.26-10.1 28.62-28.93h15.31v95.36h28.81v14.24h-72.86z"/><path d="m1696.63 1092.55a32.21 32.21 0 0 1 -32.3-32.3 29.47 29.47 0 0 1 14.69-25.87 28 28 0 0 1 -11.78-23.11 30.77 30.77 0 0 1 30.76-30.77h5.82a30.77 30.77 0 0 1 30.77 30.77 27.71 27.71 0 0 1 -11.94 23.11 29.79 29.79 0 0 1 14.85 25.87 32.34 32.34 0 0 1 -32.46 32.3zm25.56-32.3c0-10.1-7-18.21-17.15-18.21h-8.41c-10.11 0-17 8.11-17 18.21s6.89 18.07 17 18.07h8.37c10.15 0 17.19-7.96 17.19-18.07zm-18.37-32.45c9.18 0 15.46-7.35 15.46-16.53s-6.28-16.53-15.46-16.53h-5.82c-9.18 0-15.46 7.34-15.46 16.53s6.28 16.53 15.46 16.53z"/></g><path d="m352 1257.07v-61.58h8.6l11.95 39.56 12-39.56h8.6v61.58h-8.6v-38l-8.43 24.78h-7.12l-8.43-24.78v38z" fill="#ec5e47"/><path d="m415.45 1240.39c0 5.16 3.61 9.37 8.78 9.37h3.77c5.16 0 8.77-4.21 8.77-9.37v-31.66h8.61v48.34h-5l-1.21-4.81a13.46 13.46 0 0 1 -11.18 5.5h-3.78a17.44 17.44 0 0 1 -17.38-17.37v-31.66h8.6z" fill="#ec5e47"/><path d="m464.82 1244.77a9.31 9.31 0 0 0 8.26 5h4c5.16 0 8.68-1.89 8.68-6.62 0-3.7-1.37-4.9-10.83-6.37-10.41-1.63-17.47-4.9-17.47-14.36s7.92-14.37 17-14.37h3.26a17.57 17.57 0 0 1 15.74 9.55l-7.56 3.53a9.48 9.48 0 0 0 -8.18-5.08h-3c-5.16 0-8.68 1.72-8.68 6.45 0 3.45 1.72 5 10.15 6.37 13.07 2.15 18.15 5.85 18.15 14.36 0 9.47-7.92 14.54-17 14.54h-4.21a17.59 17.59 0 0 1 -15.74-9.55z" fill="#ec5e47"/><path d="m505.5 1208.73h20.13v40.34h12.37v8h-33.36v-8h12.36v-32.34h-11.5zm8.26-18.92h11.87v12h-11.87z" fill="#ec5e47"/><path d="m582.4 1248.21a17.5 17.5 0 0 1 -15.65 9.55h-3.62a17.44 17.44 0 0 1 -17.37-17.37v-15a17.44 17.44 0 0 1 17.37-17.39h3.62a17.52 17.52 0 0 1 15.65 9.55l-7.31 3.44a9.61 9.61 0 0 0 -8.34-5h-3.62c-5.16 0-8.77 4.22-8.77 9.38v15c0 5.16 3.61 9.37 8.77 9.37h3.62a9.59 9.59 0 0 0 8.34-5z" fill="#ec5e47"/><path d="m662.39 1228.09a14.19 14.19 0 1 1 -14.19-14.28 14.1 14.1 0 0 1 14.19 14.28z" fill="#ec5e47"/><path d="m751.67 1249.07v8h-35.09v-61.58h8.6v53.58z" fill="#67c4c4"/><path d="m761.13 1208.73h20.13v40.34h12.38v8h-33.37v-8h12.38v-32.34h-11.52zm8.26-18.92h11.87v12h-11.87z" fill="#67c4c4"/><path d="m839.92 1208.73-16 48.34h-10l-16-48.34h9l12 36.9 12-36.9z" fill="#67c4c4"/><path d="m885.33 1248.21a17.5 17.5 0 0 1 -15.65 9.55h-4.68a17.43 17.43 0 0 1 -17.37-17.37v-15a17.43 17.43 0 0 1 17.37-17.39h3.79a17.44 17.44 0 0 1 17.37 17.38v11.44h-29.9v3.53c0 5.16 3.61 9.37 8.77 9.37h4.65a9.59 9.59 0 0 0 8.34-5zm-7.74-22.79c0-5.16-3.61-9.38-8.77-9.38h-3.82c-5.16 0-8.77 4.22-8.77 9.38v3.44h21.33z" fill="#67c4c4"/><path d="m967 1228.09a14.19 14.19 0 1 1 -14.19-14.28 14.1 14.1 0 0 1 14.19 14.28z" fill="#67c4c4"/><path d="m1063.72 1195.49-9.81 61.58h-8.26l-3.18-21.5c-.6-4.3-1.55-14.8-1.72-18.24-.17 3.44-1.12 13.94-1.72 18.24l-3.18 21.5h-8.26l-9.8-61.58h8l4.21 31.51c.77 6 1.8 18.06 2 21.5.17-3.44 1.29-15.48 2.15-21.5l2.66-18.24h7.92l2.66 18.24c.86 6 2 18.06 2.15 21.5.18-3.44 1.21-15.48 2-21.5l4.22-31.48z" fill="#f6d289"/><path d="m1108.27 1248.21a17.52 17.52 0 0 1 -15.66 9.55h-4.61a17.44 17.44 0 0 1 -17.38-17.37v-15a17.44 17.44 0 0 1 17.38-17.39h3.78a17.44 17.44 0 0 1 17.38 17.38v11.44h-29.96v3.53c0 5.16 3.61 9.37 8.77 9.37h4.64a9.59 9.59 0 0 0 8.35-5zm-7.74-22.79c0-5.16-3.61-9.38-8.78-9.38h-3.75c-5.16 0-8.77 4.22-8.77 9.38v3.44h21.33z" fill="#f6d289"/><path d="m1119.45 1195.49h20.13v53.58h12.42v8h-33.37v-8h12.37v-45.58h-11.52z" fill="#f6d289"/><path d="m1161.42 1195.49h20.13v53.58h12.39v8h-33.38v-8h12.44v-45.58h-11.53z" fill="#f6d289"/><path d="m1204.26 1195.49h8.6v15.51a13.59 13.59 0 0 1 8.77-2.93h3.79a17.44 17.44 0 0 1 17.37 17.38v15a17.44 17.44 0 0 1 -17.37 17.37h-3.79a13.23 13.23 0 0 1 -11.18-5.5l-1.2 4.81h-5zm21.16 54.27c5.16 0 8.77-4.21 8.77-9.37v-15c0-5.16-3.61-9.38-8.77-9.38h-3.79a8.77 8.77 0 0 0 -8.77 9v15.31c0 5.16 3.61 9.37 8.77 9.37z" fill="#f6d289"/><path d="m1292.5 1248.21a17.5 17.5 0 0 1 -15.65 9.55h-4.65a17.44 17.44 0 0 1 -17.37-17.37v-15a17.44 17.44 0 0 1 17.37-17.39h3.8a17.43 17.43 0 0 1 17.37 17.38v11.44h-29.93v3.53c0 5.16 3.61 9.37 8.77 9.37h4.65a9.58 9.58 0 0 0 8.34-5zm-7.74-22.79c0-5.16-3.61-9.38-8.77-9.38h-3.79c-5.16 0-8.77 4.22-8.77 9.38v3.44h21.33z" fill="#f6d289"/><path d="m1304.54 1208.73h20.13v40.34h12.39v8h-33.38v-8h12.39v-32.34h-11.53zm8.26-18.92h11.87v12h-11.87z" fill="#f6d289"/><path d="m1377.31 1257.07v-31.65c0-5.16-3.61-9.38-8.77-9.38h-3.79c-5.16 0-8.77 4.22-8.77 9.38v31.65h-8.6v-48.34h5l1.2 4.82a13.24 13.24 0 0 1 11.18-5.51h3.79a17.44 17.44 0 0 1 17.37 17.38v31.65z" fill="#f6d289"/><path d="m1436.48 1258.45a17.43 17.43 0 0 1 -17.37 17.37h-4.65a17.51 17.51 0 0 1 -15.65-9.54l7.31-3.45a9.59 9.59 0 0 0 8.34 5h4.65c5.16 0 8.77-4.21 8.77-9.37v-3.61a13.47 13.47 0 0 1 -8.77 2.92h-3.78a17.44 17.44 0 0 1 -17.38-17.37v-15a17.44 17.44 0 0 1 17.38-17.38h3.78a13.47 13.47 0 0 1 11.18 5.51l1.21-4.82h5zm-21.15-42.45c-5.17 0-8.78 4.22-8.78 9.38v15c0 5.16 3.61 9.37 8.78 9.37h3.78c5.16 0 8.77-4.21 8.77-9.37v-15.31a8.82 8.82 0 0 0 -8.77-9z" fill="#f6d289"/></svg>