<svg viewBox="0 0 600 167" xmlns="http://www.w3.org/2000/svg"><g fill="#67c4c4"><path d="m66.23 80.69c-.09-.19-.18-.38-.28-.57a8.26 8.26 0 0 0 -1.52-2.22 5.32 5.32 0 0 0 -2.94-1.62 5.42 5.42 0 0 0 -2.3.15 8.06 8.06 0 0 0 -3.63 2.07 18.89 18.89 0 0 0 -3.2 4.13 45.14 45.14 0 0 0 -2.49 4.78c-1.1 2.43-2.18 4.87-3.26 7.32-1 2.24-2 4.47-3.11 6.66-.37.72-.75 1.44-1.14 2.15a45.94 45.94 0 0 1 -4.36 6.62 29 29 0 0 1 -3 3.27 23.3 23.3 0 0 1 -5.46 3.87 20.66 20.66 0 0 1 -5.4 1.9 15 15 0 0 1 -2.21.26 13.11 13.11 0 0 1 -1.66 0 11.57 11.57 0 0 1 -5.94-2.06c-.84-.59-1.69-1.18-2.48-1.84-.61-.51-1.21-1-1.79-1.58s-1.28-1.3-1.89-1.98a33 33 0 0 1 -3.8-5 34.65 34.65 0 0 1 -4.27-10.63 1.84 1.84 0 0 1 -.1-.37.94.94 0 0 1 .09.12 9.83 9.83 0 0 0 4.4 4 14.27 14.27 0 0 0 3.94 1.2 24 24 0 0 0 2.54.24 18.92 18.92 0 0 0 2.13 0 24 24 0 0 0 2.8-.34 26.48 26.48 0 0 0 5.16-1.49 28.51 28.51 0 0 0 5.94-3.32 34.2 34.2 0 0 0 3.45-2.79c.83-.76 1.63-1.55 2.39-2.37a61.19 61.19 0 0 0 5.16-6.35c1.3-1.86 2.56-3.74 3.84-5.62 1.05-1.54 2.12-3.07 3.32-4.5a21 21 0 0 1 3.92-3.73 11.33 11.33 0 0 1 3.61-1.72 9.58 9.58 0 0 1 2-.31 10.64 10.64 0 0 1 5.31 1.13 7.6 7.6 0 0 1 2.27 1.7 11.45 11.45 0 0 1 1.56 2.21 21.91 21.91 0 0 1 1.76 4.18c.25.77.45 1.54.67 2.32a.51.51 0 0 1 0 .13z"/><path d="m59.41 66.83-.75-.72a22.59 22.59 0 0 0 -4.84-3.57 12.19 12.19 0 0 0 -3.64-1.3 9.23 9.23 0 0 0 -2.4-.14 11.19 11.19 0 0 0 -4.34 1.25 19.56 19.56 0 0 0 -3.68 2.5 42.85 42.85 0 0 0 -3.38 3.22c-1.33 1.4-2.6 2.84-3.86 4.3s-2.73 3.16-4.11 4.73q-1.05 1.2-2.16 2.37c-.87.91-1.75 1.82-2.65 2.69a34.32 34.32 0 0 1 -5.84 4.64 18.26 18.26 0 0 1 -5.09 2.25 16.25 16.25 0 0 1 -2.19.41 12.4 12.4 0 0 1 -2 .06 11.23 11.23 0 0 1 -4.24-.9 6.8 6.8 0 0 1 -3.95-4.91 9.21 9.21 0 0 1 -.18-2.62c0-.52.09-1 .18-1.56a8 8 0 0 1 .33-1.16 34.66 34.66 0 0 1 7.1-12.37 33.79 33.79 0 0 1 8.94-7.11 34.32 34.32 0 0 1 8.8-3.38c1-.23 2-.44 3-.57l2-.22a26.63 26.63 0 0 1 3.68-.12c.81 0 1.61.09 2.41.16a31.68 31.68 0 0 1 6.45 1.32 34.33 34.33 0 0 1 11.77 6.21 36.34 36.34 0 0 1 3.52 3.27c.38.41.74.83 1.11 1.24z"/><path d="m26.4 122.63h2.06a17.08 17.08 0 0 0 6-1.13 19.51 19.51 0 0 0 5.39-3.17 24.6 24.6 0 0 0 2.13-2 35.71 35.71 0 0 0 3.48-4.26 60.72 60.72 0 0 0 3.83-6.32c1.18-2.23 2.27-4.5 3.35-6.78 1-2 1.89-4 2.86-6a35.77 35.77 0 0 1 2.5-4.34 13.72 13.72 0 0 1 1.93-2.36 5.16 5.16 0 0 1 2.17-1.27 3.66 3.66 0 0 1 3.67.94 4.17 4.17 0 0 1 1 1.83 10.07 10.07 0 0 1 .38 2.1 20.82 20.82 0 0 1 0 2.62c0 .71-.1 1.42-.16 2.13a15.2 15.2 0 0 1 -.39 2.1 33.88 33.88 0 0 1 -2.18 6.41 34.24 34.24 0 0 1 -5 8 35.47 35.47 0 0 1 -2.72 2.87 34.36 34.36 0 0 1 -7.17 5.16 34.86 34.86 0 0 1 -8.15 3.13 2 2 0 0 0 -.62.19c-.11.06-.28 0-.42 0-.94.18-1.88.36-2.84.46l-1.85.18a32.56 32.56 0 0 1 -4.19.07c-.7 0-1.39-.09-2.08-.16s-1.26-.15-1.89-.23c-.35-.03-.7-.1-1.09-.17z"/><path d="m265.17 82c.13-.16.28-.32.4-.49a10.92 10.92 0 0 1 9.32-4.58 14 14 0 0 1 5.86 1.07 8.36 8.36 0 0 1 5 6.09 26.59 26.59 0 0 1 .69 5.55c.08 6.42 0 12.84 0 19.26 0 .35 0 .7-.06 1.13h-8.85c0-.43 0-.9 0-1.37 0-5.8 0-11.59-.06-17.39a17.15 17.15 0 0 0 -.74-4.31 3.78 3.78 0 0 0 -3.52-2.84 13.18 13.18 0 0 0 -3.44.09 5.06 5.06 0 0 0 -4 3.55 15.21 15.21 0 0 0 -.75 5v15.78 1.46h-8.84v-44.59h8.77c.15 1.42 0 2.79.07 4.15s0 2.76 0 4.14v8.15z"/><path d="m432.86 96.14h-23.12c-.39 4.64 2.44 7.87 6.87 8.07a8.23 8.23 0 0 0 6-1.76 10.86 10.86 0 0 0 1.56-1.81 1.06 1.06 0 0 1 .94-.59h6.69c.12 0 .23.1.48.2-.27.71-.51 1.42-.8 2.1a13.17 13.17 0 0 1 -9.69 8 20.2 20.2 0 0 1 -10-.2 14.11 14.11 0 0 1 -9.78-8.77c-2.17-5.61-2.11-11.23.88-16.52s7.63-7.8 13.62-8a15.16 15.16 0 0 1 9.4 2.44 15.65 15.65 0 0 1 6.52 10.07 49.14 49.14 0 0 1 .57 5.84 5.18 5.18 0 0 1 -.14.93zm-23.12-5.76h14c-.43-4.55-3.24-7.06-7.49-6.76-3.85.27-6.65 3.11-6.51 6.76z"/><path d="m291.93 93.88a23.35 23.35 0 0 1 1.25-6.88 14.64 14.64 0 0 1 9.66-9.3 19.15 19.15 0 0 1 11.72-.06c6.2 1.91 9.66 6.27 10.79 12.55a20.13 20.13 0 0 1 -.52 9.66 14.73 14.73 0 0 1 -11.91 10.65 19.75 19.75 0 0 1 -9.54-.31c-6-1.76-9.57-5.81-10.89-11.85-.32-1.43-.38-2.96-.56-4.46zm24.75.06c-.09-1-.12-2-.28-3a12.41 12.41 0 0 0 -.58-2.33 7.07 7.07 0 0 0 -7-5 6.94 6.94 0 0 0 -6.9 4.92 16.37 16.37 0 0 0 0 10.9 6.76 6.76 0 0 0 6.84 4.77 6.88 6.88 0 0 0 7-4.73 16 16 0 0 0 .92-5.53z"/><path d="m439 77.79h4.86v4.49c.48-.51.75-.76 1-1 3.62-4.49 10-5.1 14.26-3.36a7 7 0 0 1 3.83 3.54c.11.24.23.47.4.81.19-.2.34-.33.46-.48a11.73 11.73 0 0 1 10.87-4.79 16.66 16.66 0 0 1 4.54 1 7.5 7.5 0 0 1 4.91 6.47 14.93 14.93 0 0 1 .13 2q0 11.11 0 22.22c0 .4 0 .79-.05 1.28h-5.36v-1.56c0-6.69 0-13.38-.05-20.07a11.32 11.32 0 0 0 -.34-2.78 4.72 4.72 0 0 0 -3.86-3.63 9.94 9.94 0 0 0 -5 .25 7.29 7.29 0 0 0 -5.27 6.55c-.06.84-.07 1.69-.07 2.54v18.73c-1.8.15-3.51 0-5.42.08v-1.64q0-9 0-18.07c0-1 0-2-.1-2.94-.31-4.33-2.84-6-6.93-5.63-5 .5-7.66 5.21-7.62 8.62.08 6 0 12 0 18.07v1.51h-5.19c-.24-1-.3-30.72 0-32.21z"/><path d="m331.38 77.78h8.95v1.48 17.39a14.79 14.79 0 0 0 .52 3.68 4.29 4.29 0 0 0 4.42 3.56 11.21 11.21 0 0 0 3.16-.32 4.56 4.56 0 0 0 3.41-3.12 15.26 15.26 0 0 0 .81-4.16c.12-5.17.1-10.34.12-15.51 0-1 0-2 0-3h8.88v32.08a44.8 44.8 0 0 1 -8.42.06v-3.92l-.22-.1c-.21.26-.43.5-.63.76a10.9 10.9 0 0 1 -8.45 4.19 17 17 0 0 1 -5.44-.48 8.5 8.5 0 0 1 -6.41-6.34 22.44 22.44 0 0 1 -.77-5.27c-.09-6.73 0-13.47 0-20.2.01-.2.04-.42.07-.78z"/><path d="m396.09 87.16h-8.32a2.13 2.13 0 0 1 -.2-.48c-.26-2.24-1.78-3.17-3.75-3.6a11.46 11.46 0 0 0 -4.52 0 2.8 2.8 0 0 0 -2.57 2.9 2.54 2.54 0 0 0 1.37 2.15 15.55 15.55 0 0 0 4.78 1.63c2.5.62 5 1.21 7.5 1.87a10.22 10.22 0 0 1 4.09 2.19 7 7 0 0 1 2.47 4.31 10.12 10.12 0 0 1 -4.83 10.63 15.86 15.86 0 0 1 -7 2.05 26.51 26.51 0 0 1 -9.67-.73 13 13 0 0 1 -4.2-2 10.07 10.07 0 0 1 -4.24-8.26 40.52 40.52 0 0 1 8.4-.13 5.25 5.25 0 0 1 .16.6 5.12 5.12 0 0 0 3.93 4.26 9 9 0 0 0 5.77-.11 4.34 4.34 0 0 0 2.24-1.62 2.89 2.89 0 0 0 -.88-4.28 9.75 9.75 0 0 0 -2.44-1c-2.79-.75-5.61-1.4-8.4-2.16a21.18 21.18 0 0 1 -3.62-1.38c-3.49-1.7-4.9-4.47-4.41-8.31a8.86 8.86 0 0 1 5.25-7.2 16.18 16.18 0 0 1 5.67-1.49 24.74 24.74 0 0 1 9.8.71c3.84 1.2 6.52 3.58 7.46 7.63a9.34 9.34 0 0 1 .16 1.06c.02.23 0 .45 0 .76z"/><path d="m251 95.62h-23.91a9.24 9.24 0 0 0 7.33 10.21 12.15 12.15 0 0 0 5.3 0 7 7 0 0 0 5.21-4.54c.16-.45.33-.91.5-1.4h5.25c-.13.6-.21 1.11-.36 1.6-1.52 5.19-5 8.15-10.29 9.1a18.19 18.19 0 0 1 -7.7-.25 12.68 12.68 0 0 1 -8.71-6.73 20.29 20.29 0 0 1 -1-17.07 14 14 0 0 1 10.42-9.11c7.2-1.58 13.2 1.2 16.31 7.9a22 22 0 0 1 1.84 9.77 3.31 3.31 0 0 1 -.19.52zm-5.67-4.86a9.09 9.09 0 0 0 -9.7-9c-4.87.23-8.94 4.58-8.48 9z"/><path d="m525 100h5.21c.08.12.16.19.17.26.3 3 2 4.62 4.81 5.38a14.77 14.77 0 0 0 8.18-.09 6 6 0 0 0 2.28-1.31 3.79 3.79 0 0 0 -.61-6.07 17.47 17.47 0 0 0 -4-1.67c-2.31-.65-4.7-1-7-1.67a23.75 23.75 0 0 1 -4.33-1.7c-5.56-2.87-5-10.38-.9-13.38a13.89 13.89 0 0 1 6-2.47 21.22 21.22 0 0 1 9.14.48 9.27 9.27 0 0 1 7.05 8.72 5.55 5.55 0 0 1 0 .63h-5.2a3.23 3.23 0 0 1 -.18-.49c-.46-2.5-2.1-3.82-4.43-4.47a12.1 12.1 0 0 0 -6.85.15 5.6 5.6 0 0 0 -2 1.1 3 3 0 0 0 0 4.7 9.13 9.13 0 0 0 3 1.65c2.42.73 4.92 1.21 7.36 1.88a36.45 36.45 0 0 1 4.93 1.62c6.61 2.84 5.88 11.39 1.57 14.63a14.3 14.3 0 0 1 -6.63 2.63 23.48 23.48 0 0 1 -9.55-.41 10.12 10.12 0 0 1 -8.02-10.1z"/><path d="m135.38 77.77h5.33v32.23h-5v-4.35l-.26-.07a3.19 3.19 0 0 0 -.31.33c-2.24 3.39-5.55 4.77-9.45 4.9a18.37 18.37 0 0 1 -4-.3 8.77 8.77 0 0 1 -7.49-8 27.29 27.29 0 0 1 -.26-3.73c0-6.46 0-12.93 0-19.4v-1.55h5.37v1.56q0 9.57 0 19.13a17.48 17.48 0 0 0 .15 2.4 5.61 5.61 0 0 0 5.33 5.09 14 14 0 0 0 4.23-.34 7.76 7.76 0 0 0 5.71-5.49 12.18 12.18 0 0 0 .61-3.54c.07-5.71 0-11.42 0-17.12.05-.52.04-1.06.04-1.75z"/><path d="m518.92 110h-4.92v-4.63c-.38.29-.57.37-.67.52-2.78 4.08-6.85 5.13-11.47 4.81a14 14 0 0 1 -3-.51c-3.78-1.13-5.81-3.79-6.4-7.6a24.14 24.14 0 0 1 -.27-3.6c0-6.55 0-13.11 0-19.67v-1.51h5.38v1.49q0 9.63 0 19.26a17.49 17.49 0 0 0 .17 2.4 5.72 5.72 0 0 0 5.36 5.09 11.27 11.27 0 0 0 4.24-.36 8.05 8.05 0 0 0 5.67-5.55 12.16 12.16 0 0 0 .59-3.54c.07-5.71 0-11.42.06-17.12v-1.67h5.17c.29.88.42 30.04.09 32.19z"/><path d="m168.51 77.78h5.3v1.49q0 9.56 0 19.12v1.88a5.82 5.82 0 0 0 5.42 5.77 10.93 10.93 0 0 0 4.36-.38c3.55-1.09 5.38-3.65 6-7.15a20.52 20.52 0 0 0 .26-3.59c0-5.18 0-10.35 0-15.52v-1.57h5.28v32.17h-2.46-2.47v-4.57l-.23-.05c-.23.3-.47.59-.69.89a10.69 10.69 0 0 1 -7.43 4.28 16.21 16.21 0 0 1 -6.36-.3 8.3 8.3 0 0 1 -6.49-6.25 17.71 17.71 0 0 1 -.53-4c-.05-7.13 0-14.26 0-21.4-.03-.23.01-.45.04-.82z"/><path d="m599.73 88.1h-5.47c-.07-.2-.16-.4-.22-.6-1.22-4.43-4.64-6.16-9.15-5.68-4.16.44-6.72 2.84-7.89 6.75a18.58 18.58 0 0 0 0 11.07 10 10 0 0 0 2.73 4.37c3.1 2.87 8.52 2.48 11.13.7a8.23 8.23 0 0 0 3.26-4.9c.13-.47.23-1 .38-1.58h5.5c-.28 1.16-.46 2.19-.77 3.18-1.75 5.49-5.47 8.57-11.22 9.25a18.75 18.75 0 0 1 -7.16-.46 12.89 12.89 0 0 1 -9.45-9.3 22.57 22.57 0 0 1 .27-14.21 13.54 13.54 0 0 1 12-9.59 18.68 18.68 0 0 1 8.33.9 11.31 11.31 0 0 1 7.73 10.1z"/><path d="m102.89 82.41v27.64c-1.78.06-3.48 0-5.35 0v-27.53h-5.42v-4.78h5.4c0-1.6 0-3 0-4.43a14.74 14.74 0 0 1 .14-2.4 6.64 6.64 0 0 1 5-5.51 13.28 13.28 0 0 1 6.48-.23 5.47 5.47 0 0 1 .75.29v4.54a10.73 10.73 0 0 0 -1.48-.21 17.75 17.75 0 0 0 -3.18.14 2.44 2.44 0 0 0 -2.23 2.54c-.09 1.68 0 3.37 0 5.2h6.16c.08 1.62.05 3.11 0 4.74z"/><path d="m150.79 82.46h-5.45v-4.74h5.44v-9.65h5.39v9.61h6.43c.07 1.61 0 3.1 0 4.75h-6.33c0 .55-.09.93-.09 1.32v18.18 1.34a1.9 1.9 0 0 0 2.06 2c1.15.08 2.31.06 3.47.09.22 0 .44 0 .82.07.1 1.51 0 3 0 4.56a7.37 7.37 0 0 1 -1.09.09c-2.22-.08-4.46 0-6.66-.3a4.1 4.1 0 0 1 -3.76-3.61 18.46 18.46 0 0 1 -.29-3.32c0-6.24 0-12.48 0-18.72z"/><path d="m208.39 110h-5.3v-32.18h4.91a12.18 12.18 0 0 1 .13 3.09c0 1 0 2.08.14 3.19 2.54-4.73 6.26-7.36 11.82-7.1v5.6c-1.18.14-2.32.22-3.45.42a8.77 8.77 0 0 0 -7.35 6.54 21.33 21.33 0 0 0 -.8 5.26c-.12 4.54 0 9.09-.06 13.64z"/><path d="m563.89 110h-5.23v-32.19h5.09a.38.38 0 0 1 .08.07.3.3 0 0 1 .07.1 2.76 2.76 0 0 1 .06.4q0 15.51 0 31c.04.19-.04.37-.07.62z"/><path d="m558.67 65.45h5.25c.11 2.13 0 4.24 0 6.45h-5.29z"/></g></svg>