<svg viewBox="0 0 424 167" xmlns="http://www.w3.org/2000/svg"><g fill="#67c4c4"><path d="m127.55 96.28c-2.25 1.36-3.27 1.7-5.18 1.7a8.93 8.93 0 0 1 -.27-17.86 10.54 10.54 0 0 1 4.77 1.23l3.34 1.77a6.57 6.57 0 0 0 2 .34 7.57 7.57 0 0 0 7.56-7.5c0-5.59-8.25-10.63-17.45-10.63a23.86 23.86 0 1 0 .07 47.72c11.38 0 18.68-5.73 18.75-14.8 0-.13 0-1.22.06-3.06v-.82c0-6.82-2.31-8.93-9.95-8.93-1 0-2.38 0-4.43-.07h-.61c-4.91 0-7.3 1.84-7.3 5.45s2.32 5.46 6.41 5.46z"/><path d="m160.55 97.84v-3.4h5.38c4.3 0 6.62-1.91 6.62-5.46 0-3.2-2.46-5.38-6.07-5.38h-5.93v-3.14h7.5c5.18 0 8.11-2.59 8.11-7.16 0-5.11-2.8-6.88-10.91-6.88h-8.93c-8.86 0-10.77 1.77-10.77 10.22v24.68c0 8.66 1.84 10.57 10.23 10.57h11.65c5.8 0 8.66-2.32 8.66-7 0-4.5-3.07-7-8.66-7z"/><path d="m189.52 80.39v22.77c0 5.86 2.66 9.07 7.57 9.07 4.7 0 7.43-3.34 7.43-9.2v-22.64h3.41c5.18 0 8.18-2.59 8.18-7 0-5.32-2.59-7-11.18-7h-15.14c-2.25 0-3.88.07-4.77.07a8.61 8.61 0 0 0 -3.34.68 7.18 7.18 0 0 0 -3.88 6.27c0 4.16 3.06 7 7.77 7z"/><path d="m226.91 106h13.91c2.18 4.63 4.16 6.27 7.7 6.27a7.52 7.52 0 0 0 7.57-7.43 8.43 8.43 0 0 0 -.89-3.61l-14.31-30.58a7.65 7.65 0 0 0 -7-4.57 7.53 7.53 0 0 0 -7 4.5l-14.18 30.2a9.63 9.63 0 0 0 -.95 4 7.37 7.37 0 0 0 7.43 7.5c3.61 0 5.8-1.77 7.7-6.27zm4.64-10.77 2.32-5.53 2.31 5.53z" fill-rule="evenodd"/><path d="m273.4 96.07 9.14.07v6.55c0 6.4 2.45 9.54 7.49 9.54 4.85 0 7.57-3.34 7.57-9.54v-27.55c0-5.72-2.79-9.06-7.64-9.06s-7.42 3.27-7.42 9.61v6.2h-9.14v-6.4c0-6.34-2.45-9.41-7.5-9.41-4.84 0-7.57 3.27-7.57 9.06v27.41c0 6.41 2.6 9.68 7.64 9.68s7.43-3.14 7.43-9.68z"/><path d="m318.26 97.85v-3.41h5.38c4.3 0 6.62-1.91 6.62-5.46 0-3.2-2.46-5.38-6.07-5.38h-5.93v-3.14h7.5c5.18 0 8.11-2.59 8.11-7.15 0-5.12-2.8-6.89-10.91-6.89h-8.96c-8.86 0-10.77 1.77-10.77 10.23v24.67c0 8.66 1.84 10.57 10.23 10.57h11.65c5.8 0 8.66-2.32 8.66-7 0-4.5-3.07-7-8.66-7z"/><g fill-rule="evenodd"><path d="m350.64 106h13.91c2.18 4.64 4.16 6.27 7.7 6.27a7.52 7.52 0 0 0 7.57-7.43 8.47 8.47 0 0 0 -.89-3.61l-14.31-30.58a7.66 7.66 0 0 0 -7-4.57 7.53 7.53 0 0 0 -6.95 4.5l-14.18 30.2a9.63 9.63 0 0 0 -.95 4 7.37 7.37 0 0 0 7.43 7.5c3.61 0 5.79-1.77 7.7-6.27zm4.63-10.77 2.32-5.52 2.32 5.52z"/><path d="m390.61 66.42c-6.55 0-8.66 2.45-8.66 10.23v25c0 8.12 2 10.23 9.75 10.23h6.4c15.55 0 25.7-9 25.7-22.77 0-13.15-10.08-22.7-24.06-22.7zm6.4 14h1.16c6.82 0 10.7 3.21 10.7 8.8 0 6.14-3.4 8.66-11.86 8.72v-17.55z"/><path d="m13.66 65.18c0-7.36 13.93-13.32 31.13-13.32s31.12 6 31.12 13.32-13.91 13.31-31.12 13.31-31.13-6-31.13-13.31zm2 26.48a4.17 4.17 0 1 1 4.16 4.17 4.16 4.16 0 0 1 -4.16-4.17zm-12.82-13.61c-.28-5.6-1.27-9.32 1.09-14.47 2-4.39 4.2-6.62 8.27-9.21 6.9-4.39 17.37-8.9 32.35-8.9v1.14l.11-1.14c15 0 25.45 4.51 32.35 8.9 4.08 2.59 6.26 4.82 8.28 9.21 2.36 5.15 1.36 8.87 1.08 14.47-.22 4.45-5.79 39-20.71 47.67-6.66 3.88-12.57 4.42-21 4.42l-.11-1.14v1.19c-8.43 0-14.34-.54-21-4.42-5-2.93-9-8.79-12.06-15.44-5.52-1-11.88-1.72-12-3.88-.09-3.27 2.79-3.96 5.51-13.64.07-.72.1-1.33.11-1.84a93.2 93.2 0 0 1 -2.27-12.92z"/></g></g></svg>