<svg viewBox="0 0 313 167" xmlns="http://www.w3.org/2000/svg"><g fill="#67c4c4"><path d="m230.84 114.15c.31-.65.65-1.26.9-1.9a8.32 8.32 0 0 0 .53-3.13q0-18.25 0-36.51a8.18 8.18 0 0 0 -1.56-5h.57 16.92a29.39 29.39 0 0 1 5.82.64 16.39 16.39 0 0 1 6.39 2.84 18.72 18.72 0 0 1 4.24 4.28 16.3 16.3 0 0 1 2.28 4.4 29.15 29.15 0 0 1 1.07 4.4 41.15 41.15 0 0 1 .23 9 34.47 34.47 0 0 1 -.68 4.74 31.16 31.16 0 0 1 -1.27 4.66 20.15 20.15 0 0 1 -1.75 3.39 17.92 17.92 0 0 1 -5.16 5 15 15 0 0 1 -4.12 2.15 17.64 17.64 0 0 1 -4.35.84c-6.57.44-13.15.09-19.72.21a1.64 1.64 0 0 1 -.34-.01zm12.16-23.15q0 6.48 0 13c0 .38.08.51.51.49h3.52a10.37 10.37 0 0 0 3.54-.47 8.83 8.83 0 0 0 4.95-4.25 11.55 11.55 0 0 0 1.45-3.8 35.32 35.32 0 0 0 .64-4 22.87 22.87 0 0 0 -.87-7.67 9.35 9.35 0 0 0 -3.4-5.14 7.61 7.61 0 0 0 -4.44-1.59c-1.75 0-3.51 0-5.27 0-.5 0-.63.16-.63.63q0 6.29 0 12.8z"/><path d="m73.7 114.2c.33-.72.68-1.34.93-2a8.23 8.23 0 0 0 .53-3q0-18.36 0-36.71a8 8 0 0 0 -1.57-4.88 3.62 3.62 0 0 1 .51 0h17.08a32 32 0 0 1 5.08.5 16.69 16.69 0 0 1 7.93 3.68 19 19 0 0 1 4.06 4.65 17.1 17.1 0 0 1 1.7 3.74 28.63 28.63 0 0 1 1.23 9.38c0 1.53-.06 3.07-.16 4.61a21.37 21.37 0 0 1 -.39 3c-.25 1.23-.61 2.45-.91 3.67a17.36 17.36 0 0 1 -1.44 3.68 14.93 14.93 0 0 1 -3.73 4.7 21.71 21.71 0 0 1 -4.57 3.17 19.37 19.37 0 0 1 -3.07 1.11 31 31 0 0 1 -8.1.74h-15.11zm12.21-23.27v13.15c0 .25.1.34.37.34q1.91 0 3.81 0a9.53 9.53 0 0 0 3.78-.61 8.62 8.62 0 0 0 3.8-3 12.25 12.25 0 0 0 2.18-4.81 31.14 31.14 0 0 0 .66-4.15 22.91 22.91 0 0 0 -.88-7.67 9.44 9.44 0 0 0 -3.46-5.18 7.59 7.59 0 0 0 -4.4-1.53c-1.73 0-3.45 0-5.18 0-.68 0-.68 0-.68.7z"/><path d="m292 66.41c1.55.24 3.12.36 4.63.74a17.44 17.44 0 0 1 5.86 2.73 21.33 21.33 0 0 1 4 3.51 25 25 0 0 1 3.51 5.28 27.14 27.14 0 0 1 1.88 5 22.74 22.74 0 0 1 .57 3 27.72 27.72 0 0 1 .36 3.63 38.42 38.42 0 0 1 -.24 4.55 21.79 21.79 0 0 1 -.66 3.48 36.77 36.77 0 0 1 -1.26 3.66 22.19 22.19 0 0 1 -2.59 4.7 22.54 22.54 0 0 1 -5.48 5.5 17.54 17.54 0 0 1 -4.57 2.36 17 17 0 0 1 -7.48 1 21.26 21.26 0 0 1 -2.77-.41 26.23 26.23 0 0 1 -3.54-1.28 20.33 20.33 0 0 1 -7.29-5.78 22.14 22.14 0 0 1 -3.31-5.39 31.94 31.94 0 0 1 -1.62-4.97 27.73 27.73 0 0 1 -.51-10.7 27.18 27.18 0 0 1 1.42-5.7 25.88 25.88 0 0 1 3.89-7 21.68 21.68 0 0 1 5.44-4.94 19.18 19.18 0 0 1 4.75-2.13 18.19 18.19 0 0 1 5.07-.7zm-10.13 24.59c.09.89.21 1.79.27 2.69a16 16 0 0 0 1.3 5.2 13 13 0 0 0 4.33 5.63 8.09 8.09 0 0 0 3.67 1.55 6.27 6.27 0 0 0 4-1.06 12.24 12.24 0 0 0 4.41-4.68 14 14 0 0 0 1.55-4c.23-1.14.4-2.29.57-3.44a17.73 17.73 0 0 0 -.2-5.49 25.53 25.53 0 0 0 -1.13-4 12.25 12.25 0 0 0 -2.55-4.2 10.69 10.69 0 0 0 -3.95-2.82 5.86 5.86 0 0 0 -3.53-.27 8.57 8.57 0 0 0 -3.37 1.78 14.23 14.23 0 0 0 -4.57 7.33 23.32 23.32 0 0 0 -.8 5.78z"/><path d="m134.65 66.41a40 40 0 0 1 4.68.75 19.86 19.86 0 0 1 10.28 6.84 24.38 24.38 0 0 1 3.39 5.49 37.52 37.52 0 0 1 1.32 3.64 24.35 24.35 0 0 1 1.1 7 41.39 41.39 0 0 1 -.31 5.09 18.68 18.68 0 0 1 -.59 3.14 34.33 34.33 0 0 1 -1.26 3.61 23.72 23.72 0 0 1 -8.07 10.2 17.16 17.16 0 0 1 -4.58 2.36 17.87 17.87 0 0 1 -7.48 1 19.31 19.31 0 0 1 -5-1.12 18.83 18.83 0 0 1 -4.56-2.52 23.12 23.12 0 0 1 -7-8.47 25.54 25.54 0 0 1 -1.65-4.42 26.85 26.85 0 0 1 -.94-10.8 33.3 33.3 0 0 1 .78-4.57 25.86 25.86 0 0 1 4.61-9.25 20.76 20.76 0 0 1 7.14-5.89c1-.47 2-.77 3.06-1.16a14.24 14.24 0 0 1 5.06-.73zm-10.16 24.59c.1.91.21 1.82.28 2.73a16.34 16.34 0 0 0 1.31 5.16 13.07 13.07 0 0 0 4.26 5.57 8.4 8.4 0 0 0 3.56 1.54 5.79 5.79 0 0 0 3.78-.82 11.7 11.7 0 0 0 4.54-4.45 16.57 16.57 0 0 0 2.24-6.44 20.86 20.86 0 0 0 .11-5.8 21.42 21.42 0 0 0 -1.21-5.07 12.13 12.13 0 0 0 -6.55-7.13 5.75 5.75 0 0 0 -3.59-.28 8.27 8.27 0 0 0 -3 1.52 13.91 13.91 0 0 0 -4.91 7.63 23 23 0 0 0 -.82 5.84z"/><path d="m170.31 114.17h-13.64c.32-.72.64-1.42 1-2.13a6.81 6.81 0 0 0 .47-2.79v-36.81a8 8 0 0 0 -1.54-4.79 1.89 1.89 0 0 1 .32-.07c5.92 0 11.85 0 17.77.06a28.36 28.36 0 0 1 4.35.64 11.65 11.65 0 0 1 5 2.25 11.11 11.11 0 0 1 3.46 4.28 16.31 16.31 0 0 1 1.5 5.86c.07 1.21.2 2.44.16 3.65a15.8 15.8 0 0 1 -1.31 5.76 12.52 12.52 0 0 1 -5.58 6.19c-.35.2-.38.36-.13.7a30.25 30.25 0 0 1 3.63 6.35 13.57 13.57 0 0 0 1.61 3.29 6.53 6.53 0 0 0 3.93 2.57c.35.06.72.06 1.2.11-.23.46-.43.93-.67 1.36a10.77 10.77 0 0 1 -3.66 3.66 8 8 0 0 1 -3.72 1.19 6.34 6.34 0 0 1 -3.5-.87 7.86 7.86 0 0 1 -3.49-4c-.88-2-1.64-4.09-2.46-6.14a21.28 21.28 0 0 0 -3.15-5.57 1.17 1.17 0 0 0 -.72-.35c-.59-.05-1.17 0-1.76 0s-.63.2-.63.63v7.74a37 37 0 0 0 .16 3.8 7.27 7.27 0 0 0 1.29 3.26.76.76 0 0 1 .11.17zm-1.59-30.92v5.87c0 .28.06.46.37.46a20.63 20.63 0 0 0 6.54-.65 5.12 5.12 0 0 0 3.5-3.69 10.53 10.53 0 0 0 .24-4 4.14 4.14 0 0 0 -1.8-3.13 7.84 7.84 0 0 0 -3.9-1.11c-1.44-.11-2.91 0-4.36-.06-.42 0-.6.11-.59.56.01 1.9 0 3.82 0 5.75z"/><path d="m202 67.61h17.74c-.06.16-.1.28-.14.4a5.79 5.79 0 0 0 -.49 3.32c.4 2.32.88 4.61 1.34 6.92.3 1.53.63 3.06 1 4.58.37 1.69.77 3.37 1.13 5.06.21 1 .36 1.94.56 2.9.26 1.25.57 2.49.84 3.74.21 1 .38 1.9.58 2.84s.44 2 .66 3 .36 1.76.54 2.64.37 1.82.56 2.73.47 1.88.63 2.83a10.83 10.83 0 0 0 2.59 5.35l.16.22h-13.7a21.35 21.35 0 0 0 .51-2.24 6.26 6.26 0 0 0 0-1.73c-.15-1-.38-2-.57-3s-.33-1.77-.54-2.65c0-.12-.32-.25-.49-.25-1.14 0-2.28 0-3.42 0-1.52 0-3.05 0-4.57 0-.35 0-.54.06-.61.45-.2 1.1-.46 2.18-.69 3.27-.16.8-.34 1.6-.46 2.4a5.62 5.62 0 0 0 .65 3.74h-13.75c.32-.41.62-.78.9-1.16a11 11 0 0 0 1.94-4.8c.21-1.32.58-2.6.86-3.9.2-.93.35-1.87.55-2.79.27-1.32.57-2.64.85-4 .22-1 .4-2 .62-3s.43-1.85.63-2.77.38-1.86.57-2.79l.66-3.07c.19-.91.37-1.83.56-2.74s.38-1.82.57-2.73.42-2 .64-3 .42-1.88.63-2.82c.1-.44.17-.88.28-1.32a10.91 10.91 0 0 0 .26-3.73 12.17 12.17 0 0 0 -.58-1.9zm9 11.1c-.31.37-2.57 15.24-2.55 16.6h5c-.9-5.58-1.69-11.07-2.45-16.6z"/><path d="m.59 114.16c.36-.84.73-1.58 1-2.35a6.65 6.65 0 0 0 .41-1.81c.07-1.09 0-2.18 0-3.27 0-10.9 0-21.82 0-32.73 0-2.24 0-4.41-1.6-6.35a5.56 5.56 0 0 1 .6-.06h26.34c.33 0 .51 0 .51.45v10a.42.42 0 0 1 -.06.15c-.6-.31-1.18-.63-1.78-.92a7.46 7.46 0 0 0 -3.22-.62c-3.23 0-6.46 0-9.69 0-.4 0-.48.15-.48.5q0 3.15 0 6.28c0 .31.09.42.4.42h7.83a6.35 6.35 0 0 0 3.09-1c.06 0 .14-.06.26-.13v11.18c-.47-.2-.91-.36-1.33-.56a6.64 6.64 0 0 0 -2.77-.57c-2.33 0-4.65 0-7 0-.37 0-.5.1-.5.48q0 5.7 0 11.4c0 .38.13.48.5.48h11.35a11.63 11.63 0 0 0 5.74-1.79.76.76 0 0 1 .06.18c-.4 2.25-.81 4.5-1.2 6.75-.2 1.16-.37 2.33-.52 3.51 0 .31-.15.41-.44.39h-27.5z"/><path d="m31.59 114.14c.36-.81.73-1.55 1-2.33a8.69 8.69 0 0 0 .39-1.75 8 8 0 0 0 0-1.3c.02-11.59.02-23.17.02-34.76 0-2.23-.09-4.4-1.61-6.35h13.66l-.58 1.53a10.32 10.32 0 0 0 -.82 3.82c0 6.73 0 13.46.05 20.19v11.4c0 .39.15.52.53.52h11.15a11.9 11.9 0 0 0 5.5-1.6 2.56 2.56 0 0 0 .31-.28 2.45 2.45 0 0 1 0 .49c-.29 1.62-.61 3.23-.88 4.86-.22 1.26-.39 2.54-.58 3.81-.08.49-.14 1-.24 1.48a.61.61 0 0 1 -.28.27 1 1 0 0 1 -.35 0h-26.86z"/><path d="m181 122.57h5.78c-.43 1.38.13 2.64.39 3.92q1 5 2.11 10a11.2 11.2 0 0 0 .73 1.77h-4.51c.53-1.13-.06-2.16-.19-3.26h-3c-.19 1.06-.69 2.1-.24 3.26h-4.51s0-.05 0-.06c1-1.22 1-2.76 1.34-4.18.73-3.26 1.41-6.53 2.08-9.81a8.42 8.42 0 0 0 .02-1.64zm2.87 3.93h-.1c-.25 1.79-.5 3.57-.76 5.36h1.64c-.29-1.86-.55-3.59-.8-5.36z"/><path d="m141.61 127.67c-.6-.48-1.17-1-1.81-1.45a3.72 3.72 0 0 0 -2.55-.66c-.37 0-.66.18-.73.56a.83.83 0 0 0 .41 1c.5.25 1 .47 1.54.69a10.85 10.85 0 0 1 3.17 1.77 4.82 4.82 0 0 1 1 6.06 5.25 5.25 0 0 1 -4.66 3 13.88 13.88 0 0 1 -2.61-.36c-1.4-.23-1.39-.24-2.55.6v-6a22.2 22.2 0 0 0 2 1.52 4.55 4.55 0 0 0 3.68.64 1.46 1.46 0 0 0 .43-2.68c-.8-.47-1.65-.85-2.49-1.25a6.83 6.83 0 0 1 -2.73-1.89 4.2 4.2 0 0 1 2.67-6.74 6.29 6.29 0 0 1 3.69.26.92.92 0 0 0 1.06-.18l.45-.39z"/><path d="m170.28 133 .57-2.72c.42-2.1.85-4.2 1.25-6.31a7.68 7.68 0 0 0 0-1.36h4.41c-1.12 1.44-1.12 3.18-1.51 4.79-.71 3-1.32 6-1.93 9a9.19 9.19 0 0 0 0 1.82h-5.73c.54-1.3-.06-2.48-.3-3.68-.69-3.37-1.44-6.73-2.2-10.08a12.93 12.93 0 0 0 -.73-1.87h4.42c-.44 1.18 0 2.3.26 3.42.43 2.34.94 4.66 1.41 7z"/><path d="m121.64 138.22a3.88 3.88 0 0 0 .51-2.49q0-5.47 0-10.95a3.5 3.5 0 0 0 -.5-2.19h9.2v3.53a3.75 3.75 0 0 0 -2.45-.54c-.86 0-1.71 0-2.6 0v2.42c1.26-.11 2.57.28 3.84-.4v3.81c-1.23-.65-2.54-.31-3.85-.41v4.23c1.94-.2 3.93.4 5.86-.61l-.58 3.6z"/><path d="m148.06 125.56c-1.74.17-3.48-.37-5.11.63l.61-3.63h12.05c.42 0 .56.1.61.54.1.9.3 1.78.45 2.66a2.46 2.46 0 0 1 0 .4c-1.58-1-3.29-.42-5-.6v.63q0 4.69 0 9.39a5.27 5.27 0 0 0 .46 2.63h-4.63a3.78 3.78 0 0 0 .56-2.35c0-3.22 0-6.43 0-9.64z"/><path d="m120.52 122.59v3.49c-1.63-.91-3.36-.3-5.07-.55v2.47c1.25-.11 2.54.27 3.79-.39v3.79c-1.22-.64-2.51-.29-3.83-.41v.58 4.31a3.82 3.82 0 0 0 .51 2.34h-4.58c.75-1.21.44-2.53.46-3.8 0-3.23 0-6.46 0-9.69a3.19 3.19 0 0 0 -.51-2.14z"/><path d="m201.06 134.62-.57 3.6h-9.42a4.37 4.37 0 0 0 .49-2.78c0-3.6 0-7.2 0-10.79a3.46 3.46 0 0 0 -.49-2.06h4.53c-.71 1.42-.4 2.91-.42 4.36v8.28c1.95-.23 3.95.4 5.88-.61z"/><path d="m163 138.22h-4.63a4 4 0 0 0 .5-2.59q0-5.52 0-11a3.2 3.2 0 0 0 -.51-2h4.64a4.78 4.78 0 0 0 -.47 2.69v10.44a4.06 4.06 0 0 0 .47 2.46z"/></g></svg>