<svg viewBox="0 0 390 167" xmlns="http://www.w3.org/2000/svg"><g fill="#67c4c4"><path d="m55 103a9 9 0 0 1 -9 9h-7.73v-41.89h7.78a9 9 0 0 1 9 9zm-19 9h-16.79v-41.89h16.79zm1-58.21a37.29 37.29 0 1 0 37.26 37.21 37.29 37.29 0 0 0 -37.26-37.25"/><path d="m102.62 101.29h5.07c8.07 0 9.25-6.54 9.25-10.49 0-2.65-.82-10-10.19-10h-4.13zm-12.96-31.29h21.27c14 0 19 10.37 19 21 0 12.9-6.83 21.09-21.5 21.09h-18.77z"/><path d="m131.09 70h34.82v10.78h-21.86v5.25h19.86v10.01h-19.86v5.25h22.51v10.78h-35.47z"/><path d="m177.99 80.78h-11.78v-10.78h36.53v10.78h-11.79v31.29h-12.96z"/><path d="m223.19 102.58c3.3 0 8.37-2.18 8.37-11.55s-5.07-11.54-8.37-11.54-8.37 2.17-8.37 11.54 5.07 11.55 8.37 11.55m0-33.58c12.78 0 21.33 9.19 21.33 22s-8.55 22-21.33 22-21.33-9.19-21.33-22 8.54-22 21.33-22"/><path d="m245.64 70h13.26l12.25 22.5h.12v-22.5h12.25v42.07h-12.6l-12.91-22.98h-.12v22.98h-12.25z"/><path d="m307.75 97-3.77-13h-.12l-4.07 13zm-10.2-27h12.67l15.32 42.07h-13.43l-1.77-6h-13.34l-1.89 6h-13z"/><path d="m329.85 80.78h-11.79v-10.78h36.53v10.78h-11.78v31.29h-12.96z"/><path d="m354.95 70h34.82v10.78h-21.86v5.25h19.86v10.01h-19.86v5.25h22.51v10.78h-35.47z"/></g></svg>