<svg viewBox="0 0 408 167" xmlns="http://www.w3.org/2000/svg"><g fill="#67c4c4"><path d="m42 104.09v14.33h-42.23v-53.5h17v39.17z"/><path d="m62.5 79.17v5.29h23.55v14.34h-23.55v5.29h30.12v14.33h-47.1v-53.5h47.1v14.25z"/><path d="m142.52 64.84v14.33h-14.9v39.25h-17v-39.25h-14.88v-14.33z"/><path d="m163 64.92v53.5h-17v-53.5z" opacity=".6"/><path d="m213.32 64.84v14.33h-14.9v39.25h-17v-39.25h-14.9v-14.33z" opacity=".6"/><path d="m264 104.09v14.33h-10.69l-19.47-15.61v15.61h-17v-53.58h47.16v24.16l-11.37 6.73zm-17-24.91h-13.16v9.21l13.16-7.84z"/><path d="m315.57 64.84v53.58h-47.1v-53.58zm-17 14.34h-13.12v24.91h13.14z"/><path d="m362.13 104.09v14.33h-42.21v-53.5h17v39.17z"/><path d="m408.06 104.09v14.33h-42.21v-53.5h17v39.17z"/></g></svg>