<svg viewBox="0 0 238 167" xmlns="http://www.w3.org/2000/svg"><g fill="#67c4c4"><path d="m88.93 132.79h-.24v2.6h4.76v-.21h.03v-2.44h-4.55z"/><path d="m154.29 44.62c-16.81.08-39.78 0-56.59 0 0 0-3.69 0-8.49 0h-.08a8.56 8.56 0 0 0 -8.56 8.57v.56c-.09 11.41 0 22.82 0 34.22v21.83a8.56 8.56 0 0 0 8.51 8.46h66.92v-14.66h-58.3v-44.26h58.3c-.05-6.16-.05-9.53 0-14.72z"/><path d="m161.81 103.6v14.64h1.58 66a8.5 8.5 0 0 0 8.13-8.52c0-.24 0-.49 0-.72 0-8 0-17.62 0-25.62 0-.25 0-.5 0-.76a8.56 8.56 0 0 0 -8.57-8.56h-.67-.5c-15.91-.08-32.65.1-48.56 0v-14.72h55.77v-14.72c-.83 0-3.36.07-4 .07-20.26 0-39.84-.07-60.11-.08h-.46a8.56 8.56 0 0 0 -8.57 8.57v.54a26.12 26.12 0 0 0 0 3.19c-.05 2.42-.08 6-.05 8.91.05 4.85-.15 9.57 0 14.42a7.57 7.57 0 0 0 1 4c2.28 3.38 5.79 4.36 9.68 4.38l35.72.13h11.6v14.85z"/><path d="m64.34 132.79h-4.54v5h.1v.2h4.77v-5.2z"/><path d="m83.75 132.79h-4.77v5.2h4.77v-.14h.06v-5.01h-.06z"/><path d="m188.01 132.79h4.78v5.2h-4.78z"/><path d="m163.94 132.79h-4.78v5.2h4.78v-.14h.11v-5.01h-.11z"/><path d="m112.54 132.79h-4.77v2.6h4.77v-.19h.18v-2.39h-.18z"/><path d="m234.81 127.11h-217.52v-50.33l58.61 45.69c-.2-26 0-52.09-.16-77.85-5.78-.21-11.86.2-17.41 0v42l-58.33-45.17v101.33h234.81zm-177.69 13-6.77-5.32v4.91h-2v-9l6.78 5.3v-4.91h2zm9.55-1.43a1 1 0 0 1 -1 1h-6.76a1 1 0 0 1 -1-1v-6.53a1 1 0 0 1 1-1h6.75a1 1 0 0 1 1 1zm9.54-5.87h-6.77v5.19h6.77v1.69h-7.77a1 1 0 0 1 -.71-.3 1 1 0 0 1 -.29-.72v-6.53a1 1 0 0 1 .29-.72 1 1 0 0 1 .71-.3h7.77zm9.54 5.87a1 1 0 0 1 -1 1h-6.75a1 1 0 0 1 -.72-.3 1 1 0 0 1 -.29-.72v-6.53a1 1 0 0 1 .29-.72 1 1 0 0 1 .72-.3h6.75a1 1 0 0 1 1 1zm9.71-2.6a1 1 0 0 1 -.3.72 1 1 0 0 1 -.72.29h-5.75v2.61h-2v-8.57h7.75a1 1 0 0 1 .72.3 1 1 0 0 1 .3.72zm6.14-.48v4.1h-2v-4.15l-3.37-4.42h2.25l2.12 2.79 2.15-2.79h2.25zm11 4.1-1.6-2.63h-3.24v2.61h-2v-8.57h7.76a1 1 0 0 1 .71.3.94.94 0 0 1 .3.72v3.93a.94.94 0 0 1 -.3.72 1 1 0 0 1 -.71.29h-.17l1.56 2.61zm5.1 0h-2v-8.57h2zm9.84-1a1 1 0 0 1 -1 1h-6.75a1 1 0 0 1 -.72-.3 1 1 0 0 1 -.29-.72v-6.53a1 1 0 0 1 .29-.72 1 1 0 0 1 .72-.3h7.21v1.68h-6.28v5.19h4.78v-1.76h-2v-1.68h4zm9.55 1h-2v-3.45h-4.79v3.45h-2v-8.57h2v3.44h4.78v-3.44h2zm9.68-6.89h-3.39v6.89h-2v-6.89h-3.38v-1.68h8.77zm9.54 5.87a1 1 0 0 1 -.29.72 1 1 0 0 1 -.72.3h-7.76v-1.7h6.77v-1.76h-5.76a1 1 0 0 1 -1-1v-3.08a1 1 0 0 1 .3-.72 1 1 0 0 1 .71-.3h7.27v1.68h-6.28v1.76h5.76a1 1 0 0 1 .72.3 1 1 0 0 1 .29.72zm9.64 0a1 1 0 0 1 -1 1h-6.76a1 1 0 0 1 -1-1v-6.53a1 1 0 0 1 1-1h6.76a1 1 0 0 1 1 1zm9.69 0a1 1 0 0 1 -.3.72.94.94 0 0 1 -.71.3h-6.75a.94.94 0 0 1 -.71-.3 1 1 0 0 1 -.29-.72v-7.55h2v6.87h4.78v-6.88h2zm9.62 1.43-6.78-5.32v4.91h-2v-9l6.77 5.33v-4.91h2zm9.54-1.43a1 1 0 0 1 -1 1h-7.8v-8.57h7.76a1 1 0 0 1 1 1zm9.61 0a1 1 0 0 1 -.3.72.94.94 0 0 1 -.71.3h-7.76v-1.7h6.77v-1.76h-5.76a1 1 0 0 1 -1-1v-3.08a1 1 0 0 1 .3-.72.94.94 0 0 1 .71-.3h7.26v1.68h-6.27v1.76h5.76a.94.94 0 0 1 .71.3 1 1 0 0 1 .3.72z"/></g></svg>