<svg viewBox="0 0 582 167" xmlns="http://www.w3.org/2000/svg"><g fill="#67c4c4"><path d="m51.16 88.38h-41.23a5.07 5.07 0 0 1 -5.06-5.06v-13.07a5.06 5.06 0 0 1 5.06-5.06h10.53v-5.11h-10.53a10.18 10.18 0 0 0 -10.16 10.17v13.07a10.17 10.17 0 0 0 10.16 10.16h41.23a5.07 5.07 0 0 1 5.06 5.06v13.75a5.07 5.07 0 0 1 -5.06 5.06h-12.9a5.07 5.07 0 0 1 -5.06-5.06v-10.29h-5.1v10.29a10.17 10.17 0 0 0 10.16 10.16h12.9a10.18 10.18 0 0 0 10.17-10.16v-13.75a10.18 10.18 0 0 0 -10.17-10.16z"/><path d="m51.16 60.08h-12.9a10.18 10.18 0 0 0 -10.16 10.17v10.15h5.1v-10.15a5.06 5.06 0 0 1 5.06-5.06h12.9a5.06 5.06 0 0 1 5.06 5.06v10.29h5.11v-10.29a10.18 10.18 0 0 0 -10.17-10.17z"/><path d="m-.23 101.42h5.11v20.98h-5.11z"/><path d="m133.93 75.83h-12.63a2 2 0 0 0 -1.48.6 2 2 0 0 0 -.6 1.47v27.75a1.39 1.39 0 0 0 .47 1 1.53 1.53 0 0 0 2.15 0 1.36 1.36 0 0 0 .47-1v-13.48h11.05a1.53 1.53 0 0 0 1.06-.41 1.41 1.41 0 0 0 .44-1 1.46 1.46 0 0 0 -.44-1.06 1.47 1.47 0 0 0 -1.06-.44h-11.05v-10.47h11.62a1.49 1.49 0 0 0 1.06-.43 1.36 1.36 0 0 0 .44-1 1.5 1.5 0 0 0 -1.5-1.5z"/><path d="m175.24 103.75h-12.06v-11.54h11.23a1.42 1.42 0 0 0 1.08-.44 1.49 1.49 0 0 0 .41-1 1.4 1.4 0 0 0 -.44-1 1.49 1.49 0 0 0 -1.05-.41h-11.23v-10.57h11.82a1.51 1.51 0 0 0 1.06-.43 1.35 1.35 0 0 0 .43-1 1.45 1.45 0 0 0 -.43-1.06 1.47 1.47 0 0 0 -1.06-.44h-12.84a2 2 0 0 0 -2.07 2.07v26.73a2 2 0 0 0 2.07 2.07h13.08a1.42 1.42 0 0 0 1.06-.44 1.44 1.44 0 0 0 .44-1.05 1.38 1.38 0 0 0 -.44-1 1.48 1.48 0 0 0 -1.06-.49z"/><path d="m218.92 105.16-9.68-28.62a1.63 1.63 0 0 0 -.64-.81 1.7 1.7 0 0 0 -1-.33 1.81 1.81 0 0 0 -1.67 1.14l-9.69 28.62c0 .09 0 .17-.07.25a1.66 1.66 0 0 0 0 .24 1.38 1.38 0 0 0 .46 1 1.5 1.5 0 0 0 1 .44 1.43 1.43 0 0 0 .86-.26 1.52 1.52 0 0 0 .55-.75l2.69-8h11.71l2.69 8a1.47 1.47 0 0 0 .55.75 1.41 1.41 0 0 0 .86.26 1.4 1.4 0 0 0 1-.46 1.48 1.48 0 0 0 .44-1 .9.9 0 0 0 0-.24 1.36 1.36 0 0 0 -.06-.23zm-16.2-10 4.84-14.66 4.85 14.66z"/><path d="m257.67 75.83h-17.67a1.5 1.5 0 0 0 -1.5 1.5 1.36 1.36 0 0 0 .44 1 1.49 1.49 0 0 0 1.06.43h7.26v26.84a1.5 1.5 0 0 0 .46 1.08 1.5 1.5 0 0 0 2.16 0 1.46 1.46 0 0 0 .46-1.08v-26.81h7.31a1.47 1.47 0 0 0 1.06-.43 1.33 1.33 0 0 0 .44-1 1.42 1.42 0 0 0 -.44-1.06 1.44 1.44 0 0 0 -1.04-.47z"/><path d="m298 75.4a1.44 1.44 0 0 0 -1.08.46 1.48 1.48 0 0 0 -.46 1.07v12.29h-13v-12.29a1.45 1.45 0 0 0 -.47-1.07 1.49 1.49 0 0 0 -2.15 0 1.45 1.45 0 0 0 -.47 1.07v28.67a1.55 1.55 0 0 0 3.09 0v-13.43h13v13.43a1.5 1.5 0 0 0 .46 1.08 1.48 1.48 0 0 0 1.08.46 1.57 1.57 0 0 0 1.54-1.54v-28.67a1.44 1.44 0 0 0 -.46-1.07 1.42 1.42 0 0 0 -1.08-.46z"/><path d="m337.56 103.75h-12.07v-11.54h11.24a1.4 1.4 0 0 0 1.07-.44 1.46 1.46 0 0 0 .42-1 1.4 1.4 0 0 0 -.44-1 1.49 1.49 0 0 0 -1-.41h-11.29v-10.57h11.81a1.48 1.48 0 0 0 1.05-.43 1.33 1.33 0 0 0 .44-1 1.42 1.42 0 0 0 -.44-1.06 1.45 1.45 0 0 0 -1.05-.44h-12.82a2 2 0 0 0 -2.07 2.07v26.73a2 2 0 0 0 2.07 2.07h13.08a1.49 1.49 0 0 0 1.49-1.49 1.37 1.37 0 0 0 -.43-1 1.5 1.5 0 0 0 -1.06-.49z"/><path d="m373.59 92.83a7.8 7.8 0 0 0 5-2.69 8.39 8.39 0 0 0 1.85-5.59 8.65 8.65 0 0 0 -2.44-6.38 8.32 8.32 0 0 0 -6.17-2.34h-7.83a2 2 0 0 0 -2 2.07v27.7a1.57 1.57 0 0 0 1.54 1.54 1.44 1.44 0 0 0 1.07-.46 1.42 1.42 0 0 0 .46-1.08v-12.6h5.21l7.57 13.39a1.38 1.38 0 0 0 1.28.79 1.41 1.41 0 0 0 .74-.21 1.82 1.82 0 0 0 .56-.58 1.49 1.49 0 0 0 .19-.75 1.35 1.35 0 0 0 -.17-.7zm-8.59-2.83v-11.21h6.75a5.52 5.52 0 0 1 4.09 1.49 4.67 4.67 0 0 1 1.16 1.85 7.19 7.19 0 0 1 .38 2.42 5.31 5.31 0 0 1 -1.45 4.06 5.86 5.86 0 0 1 -4.14 1.4z"/><path d="m418.46 93.36a9.88 9.88 0 0 0 -2-1.69 25.8 25.8 0 0 0 -2.4-1.35l-4.85-2.32a7.52 7.52 0 0 1 -2.64-2 4.3 4.3 0 0 1 -.89-2.79 4.39 4.39 0 0 1 2-3.86 5.79 5.79 0 0 1 2-.83 9.82 9.82 0 0 1 2.14-.24 13.24 13.24 0 0 1 3.23.36 20.9 20.9 0 0 1 2.76 1 1.48 1.48 0 0 0 1.67-.32 1.39 1.39 0 0 0 .44-1 1.51 1.51 0 0 0 -.25-.87 1.45 1.45 0 0 0 -.73-.55 26.59 26.59 0 0 0 -3.2-1 16.85 16.85 0 0 0 -3.92-.41 11.43 11.43 0 0 0 -3.53.53 8.76 8.76 0 0 0 -2.93 1.51 7.73 7.73 0 0 0 -2 2.42 7 7 0 0 0 -.74 3.24 9 9 0 0 0 .38 2.75 6.56 6.56 0 0 0 1 2 7.47 7.47 0 0 0 1.65 1.57 14.89 14.89 0 0 0 2.21 1.26l4.8 2.33a19.74 19.74 0 0 1 1.72 1 7.62 7.62 0 0 1 1.47 1.23 6.34 6.34 0 0 1 1 1.56 4.64 4.64 0 0 1 .39 1.92 5.3 5.3 0 0 1 -1.56 4.09 6.8 6.8 0 0 1 -4.78 1.46 12.55 12.55 0 0 1 -3.21-.4 15.84 15.84 0 0 1 -3-1.1 1.35 1.35 0 0 0 -.62-.13 1.43 1.43 0 0 0 -1.05.43 1.33 1.33 0 0 0 -.45 1 1.41 1.41 0 0 0 .25.81 1.46 1.46 0 0 0 .63.55 24.15 24.15 0 0 0 3.63 1.21 15.93 15.93 0 0 0 3.86.46 11.7 11.7 0 0 0 3.61-.55 8.78 8.78 0 0 0 3-1.61 7.8 7.8 0 0 0 2.82-6.25 8.11 8.11 0 0 0 -.53-3.08 7.34 7.34 0 0 0 -1.38-2.34z"/><path d="m460.68 75.83h-17.68a1.5 1.5 0 0 0 -1.5 1.5 1.36 1.36 0 0 0 .44 1 1.49 1.49 0 0 0 1.06.43h7.26v26.84a1.59 1.59 0 0 0 1.55 1.54 1.45 1.45 0 0 0 1.07-.46 1.43 1.43 0 0 0 .47-1.08v-26.81h7.3a1.51 1.51 0 0 0 1.07-.43 1.36 1.36 0 0 0 .44-1 1.46 1.46 0 0 0 -.44-1.06 1.48 1.48 0 0 0 -1.04-.47z"/><path d="m492.48 75.4a9.52 9.52 0 0 0 -10 10v11.7a10 10 0 1 0 20.08 0v-11.67a9.51 9.51 0 0 0 -10-10zm7 21.84a6.91 6.91 0 0 1 -1.9 5.15 7.72 7.72 0 0 1 -10.12 0 7 7 0 0 1 -1.9-5.15v-11.89a7 7 0 0 1 1.9-5.2 7.72 7.72 0 0 1 10.12 0 7 7 0 0 1 1.9 5.2z"/><path d="m541.62 75.4a1.59 1.59 0 0 0 -1.54 1.53v23.47l-13.08-24.08a1.63 1.63 0 0 0 -1.58-.92 1.66 1.66 0 0 0 -1.26.53 1.76 1.76 0 0 0 -.5 1.26v28.41a1.5 1.5 0 0 0 .46 1.08 1.48 1.48 0 0 0 1.08.46 1.49 1.49 0 0 0 1.08-.46 1.46 1.46 0 0 0 .46-1.08v-23.43l13.08 24a1.59 1.59 0 0 0 .64.69 1.81 1.81 0 0 0 .9.24 1.81 1.81 0 0 0 1.81-1.8v-28.37a1.48 1.48 0 0 0 -.46-1.07 1.46 1.46 0 0 0 -1.09-.46z"/><path d="m581.39 104.17a1.47 1.47 0 0 0 -1-.42h-12.12v-11.54h11.23a1.42 1.42 0 0 0 1.08-.44 1.46 1.46 0 0 0 .42-1 1.4 1.4 0 0 0 -.44-1 1.51 1.51 0 0 0 -1.06-.41h-11.23v-10.57h11.8a1.49 1.49 0 0 0 1.06-.43 1.36 1.36 0 0 0 .44-1 1.5 1.5 0 0 0 -1.5-1.5h-12.81a2 2 0 0 0 -1.48.6 2 2 0 0 0 -.6 1.47v26.73a2 2 0 0 0 .6 1.48 2 2 0 0 0 1.48.59h13.08a1.41 1.41 0 0 0 1-.44 1.4 1.4 0 0 0 .44-1.05 1.35 1.35 0 0 0 -.39-1.07z"/></g></svg>