<svg viewBox="0 0 351 167" xmlns="http://www.w3.org/2000/svg"><g fill="#67c4c4"><path d="m118.19 110.27a11.82 11.82 0 0 1 -3 .74 22.25 22.25 0 0 1 -2.87.2 11.73 11.73 0 0 1 -6.2-1.57c-1.72-1-2.72-2.88-3-5.49h-9a14 14 0 0 0 1.45 6.24 12.76 12.76 0 0 0 3.77 4.39 16.45 16.45 0 0 0 5.65 2.63 27.49 27.49 0 0 0 7.11.86 29.55 29.55 0 0 0 6.35-.7 19.29 19.29 0 0 0 5.85-2.28 13 13 0 0 0 4.28-4.08 10.88 10.88 0 0 0 1.65-6.12 10.15 10.15 0 0 0 -1.14-5 10.33 10.33 0 0 0 -3-3.38 15.63 15.63 0 0 0 -4.2-2.12 49.2 49.2 0 0 0 -4.79-1.33c-1.68-.37-3.3-.71-4.87-1a30.77 30.77 0 0 1 -4.2-1.14 8.93 8.93 0 0 1 -3-1.69 3.41 3.41 0 0 1 -1.03-2.71 3 3 0 0 1 .79-2.15 5 5 0 0 1 1.92-1.26 10.53 10.53 0 0 1 2.43-.59 20.22 20.22 0 0 1 2.24-.16 12.25 12.25 0 0 1 5.3 1.1 5.59 5.59 0 0 1 2.92 4.34h9.34a13.45 13.45 0 0 0 -1.94-5.79 12.51 12.51 0 0 0 -3.85-3.88 16 16 0 0 0 -5.15-2.16 26.09 26.09 0 0 0 -6-.67 31.92 31.92 0 0 0 -5.77.55 18 18 0 0 0 -5.5 1.95 12.35 12.35 0 0 0 -4.08 3.61 9.19 9.19 0 0 0 -1.65 5.51 10.83 10.83 0 0 0 1.1 5.14 9.8 9.8 0 0 0 2.94 3.41 15.38 15.38 0 0 0 4.16 2.12 43.73 43.73 0 0 0 4.83 1.33c1.62.37 3.21.71 4.78 1a30.77 30.77 0 0 1 4.2 1.14 8.77 8.77 0 0 1 3 1.77 3.92 3.92 0 0 1 1.26 2.83 3.87 3.87 0 0 1 -.82 2.78 5.77 5.77 0 0 1 -2.26 1.63z"/><path d="m134 76.6v25.74q0 8 3.57 12t11.57 4a13.33 13.33 0 0 0 6.64-1.84 12.25 12.25 0 0 0 4.9-4.91h.16v5.66h8.79v-40.65h-8.95v23.54a18.12 18.12 0 0 1 -.51 4.4 8.94 8.94 0 0 1 -1.68 3.49 8.41 8.41 0 0 1 -3.07 2.32 11.2 11.2 0 0 1 -4.71.86 7.42 7.42 0 0 1 -5.71-2.21q-2-2.19-2-7.53v-24.87z"/><path d="m174.54 61.14v56h8.46v-5.54h.16a9.87 9.87 0 0 0 2.55 3.3 13.48 13.48 0 0 0 3.41 2 15.61 15.61 0 0 0 4 1.06 31.9 31.9 0 0 0 4.12.27 15.64 15.64 0 0 0 13.22-6.47 20.6 20.6 0 0 0 3.22-6.79 29.57 29.57 0 0 0 1.06-7.93 28.84 28.84 0 0 0 -1.18-8.39 20 20 0 0 0 -3.56-6.83 16.44 16.44 0 0 0 -5.92-4.63 19.34 19.34 0 0 0 -8.36-1.69 14.58 14.58 0 0 0 -3.5.43 15.54 15.54 0 0 0 -3.37 1.26 13.86 13.86 0 0 0 -2.94 2 11.87 11.87 0 0 0 -2.28 2.67h-.16v-20.72zm11.46 25.35q2.86-3.93 8.52-3.93a9.65 9.65 0 0 1 4.87 1.22 10.88 10.88 0 0 1 3.61 3.22 14.44 14.44 0 0 1 2.12 4.59 20.27 20.27 0 0 1 .7 5.34 22.71 22.71 0 0 1 -.59 5.22 13.12 13.12 0 0 1 -2 4.55 11 11 0 0 1 -3.49 3.26 11.26 11.26 0 0 1 -10 .15 11 11 0 0 1 -3.57-3 12.89 12.89 0 0 1 -2.24-4.51 21.05 21.05 0 0 1 -.74-5.69q-.01-6.5 2.81-10.42z"/><path d="m240.94 110.27a11.82 11.82 0 0 1 -3 .74 22.1 22.1 0 0 1 -2.86.2 11.68 11.68 0 0 1 -6.2-1.57c-1.73-1-2.72-2.88-3-5.49h-8.95a13.91 13.91 0 0 0 1.45 6.24 12.55 12.55 0 0 0 3.77 4.39 16.36 16.36 0 0 0 5.65 2.63 27.47 27.47 0 0 0 7.1.86 29.71 29.71 0 0 0 6.36-.7 19.49 19.49 0 0 0 5.85-2.28 12.83 12.83 0 0 0 4.27-4.08 10.88 10.88 0 0 0 1.65-6.12 9.77 9.77 0 0 0 -4.12-8.4 15.63 15.63 0 0 0 -4.2-2.12 48.43 48.43 0 0 0 -4.79-1.33q-2.5-.55-4.86-1a30.77 30.77 0 0 1 -4.2-1.14 8.93 8.93 0 0 1 -3-1.69 3.41 3.41 0 0 1 -1.14-2.67 3 3 0 0 1 .78-2.15 5.1 5.1 0 0 1 1.93-1.26 10.41 10.41 0 0 1 2.43-.59 20.06 20.06 0 0 1 2.24-.16 12.31 12.31 0 0 1 5.3 1.1 5.59 5.59 0 0 1 2.96 4.32h9.34a13.46 13.46 0 0 0 -1.93-5.77 12.59 12.59 0 0 0 -3.84-3.88 16 16 0 0 0 -5.18-2.16 26.11 26.11 0 0 0 -6-.67 31.82 31.82 0 0 0 -5.76.55 18 18 0 0 0 -5.5 1.92 12.35 12.35 0 0 0 -4.08 3.61 9.26 9.26 0 0 0 -1.61 5.54 11 11 0 0 0 1.1 5.14 9.8 9.8 0 0 0 2.94 3.41 15.53 15.53 0 0 0 4.16 2.1 45 45 0 0 0 4.83 1.33c1.62.37 3.22.71 4.79 1a30.77 30.77 0 0 1 4.2 1.14 8.87 8.87 0 0 1 3 1.77 4 4 0 0 1 1.25 2.83 3.83 3.83 0 0 1 -.82 2.78 5.64 5.64 0 0 1 -2.31 1.63z"/><path d="m261 112.23a18.45 18.45 0 0 0 6.43 4.44 24.32 24.32 0 0 0 17.35 0 18.45 18.45 0 0 0 6.43-4.44 18.88 18.88 0 0 0 4-6.75 27.65 27.65 0 0 0 0-17.19 19.05 19.05 0 0 0 -4-6.75 18.43 18.43 0 0 0 -6.43-4.43 24.18 24.18 0 0 0 -17.35 0 18.43 18.43 0 0 0 -6.43 4.43 19.05 19.05 0 0 0 -4 6.75 27.65 27.65 0 0 0 0 17.19 18.88 18.88 0 0 0 4 6.75zm4.24-20.56a13.56 13.56 0 0 1 2.08-4.59 11 11 0 0 1 3.61-3.26 11.28 11.28 0 0 1 10.36 0 11.09 11.09 0 0 1 3.61 3.26 14 14 0 0 1 2.1 4.59 20.81 20.81 0 0 1 0 10.4 14.54 14.54 0 0 1 -2.08 4.59 11 11 0 0 1 -3.61 3.3 11.36 11.36 0 0 1 -10.36 0 10.89 10.89 0 0 1 -3.61-3.3 14.1 14.1 0 0 1 -2.08-4.59 20.51 20.51 0 0 1 0-10.4z"/><path d="m335.76 117.18v-40.58h-8.95v23.54a18.12 18.12 0 0 1 -.51 4.4 8.82 8.82 0 0 1 -1.69 3.49 8.29 8.29 0 0 1 -3.06 2.32 11.2 11.2 0 0 1 -4.71.86 7.42 7.42 0 0 1 -5.73-2.2q-2-2.19-2-7.53v-24.88h-8.95v25.74q0 8 3.58 12t11.57 4a13.3 13.3 0 0 0 6.63-1.84 12.21 12.21 0 0 0 4.91-4.91h.15v5.66z"/><path d="m341.94 61.14h8.95v56.04h-8.95z"/><path d="m37.59 119.09c-2.87 5-8.42 7-15.52 7.49a19.37 19.37 0 0 0 31 0c-7.07-.44-12.61-2.49-15.48-7.49z"/><path d="m4.57 81.46c0 5.91 4.41 8.38 9.52 9.63l15.37 3.79a37.73 37.73 0 0 1 8.13 3 37.76 37.76 0 0 1 8.11-3l15.36-3.79c5.12-1.25 9.54-3.72 9.54-9.63 0-9.36-7.59-12.54-15.8-12.54-8.92 0-16.86 4.85-17.21 14.48-.36-9.63-8.3-14.48-17.23-14.48-8.2 0-15.79 3.18-15.79 12.54z"/><path d="m.32 105.21c-.27 13 9.1 17 20.57 17 6.63 0 16.7-3.62 16.7-12.79 0-7.15-7.15-10-13-11.39l-14-3.45c-3.9-1.02-7.59-2.45-10.27-4.99z"/><path d="m37.59 73.1c2.86-5 8.41-8.19 15.49-8.65a19.38 19.38 0 0 0 -31 0c7.08.46 12.63 3.63 15.51 8.65z"/><path d="m54.27 122.16c11.48 0 20.84-4 20.57-17v-15.57c-2.65 2.54-6.37 4-10.23 4.94l-14.06 3.47c-5.81 1.41-13 4.24-13 11.39.04 9.15 10.09 12.77 16.72 12.77z"/></g></svg>