<svg viewBox="0 0 490.29 167.59" xmlns="http://www.w3.org/2000/svg"><g fill="#67c4c4"><path d="m27.29 88.64a29.48 29.48 0 0 1 2-2.23c12.39-12.66 26.53-3.11 41.08-19.41q-1-1.55-2.1-3a36.37 36.37 0 0 0 -2.85-3.29c-12.42 12.52-24.73 10.82-33.59 20.38a24.21 24.21 0 0 0 -4.54 7.55z"/><path d="m46.51 89.44c-1 .28-19.38 5.56-21.95 25.47-10.84-21.34-6.56-34.31-1.06-41.43a23.79 23.79 0 0 1 2.13-2.48 24.76 24.76 0 0 1 4.29-3.46 17 17 0 0 1 2.15-1.25c8.63-4.35 18.38-3.1 28.55-9.78a37.89 37.89 0 1 0 12.7 16.3c-6.4 10.54-17.41 13.53-26.81 16.63zm-21.91 25.56.05-.06z"/><path d="m111.15 111.96h9.21v-20.41h15.36v-8.61h-15.36v-12.1h16.1v-8.61h-25.31z"/><path d="m172.45 89.84a16.79 16.79 0 0 0 5.2-12.25 15.19 15.19 0 0 0 -5.28-11.59c-3-2.67-6.75-3.79-12.69-3.79h-15.22v49.79h9.21v-19l13.33 19h11.13l-13.47-18.45c3.7-.89 5.64-1.77 7.79-3.71zm-18.78-3.84v-15.16h5.94c5.34 0 8.83 3 8.83 7.5 0 4.74-3.34 7.64-8.91 7.64z"/><path d="m185.2 111.96h26.8v-8.61h-17.6v-11.8h16.86v-8.61h-16.86v-12.1h17.6v-8.61h-26.8z"/><path d="m302.45 93.85c0 3.56-.37 5.34-1.55 7.05a8.39 8.39 0 0 1 -7.06 3.49 8 8 0 0 1 -7-3.56c-1.2-1.78-1.56-3.27-1.56-7v-31.6h-9.18v31.62c0 5.2.89 8.91 2.9 11.73a18.45 18.45 0 0 0 15 7.42 17.93 17.93 0 0 0 14.25-6.75c2.38-3 3.42-6.83 3.42-12.4v-31.62h-9.21z"/><path d="m320.32 111.96h26.8v-8.61h-17.59v-11.8h16.85v-8.61h-16.85v-12.1h17.59v-8.61h-26.8z"/><path d="m385.78 98.45-20.71-36.22h-10.46v49.73h9.2v-36.15l20.86 36.15h10.32v-49.73h-9.21z"/><path d="m426 69.87c5.12 0 9.57 2.16 13.36 6.54h10.46a21.63 21.63 0 0 0 -7.12-9.36 25.8 25.8 0 0 0 -42.09 19.82 26.16 26.16 0 0 0 25.91 26.06c10 0 19.29-5.94 23-14.77h-10.64c-4.23 4.45-7.72 6.16-12.47 6.16-8.91 0-16.56-8-16.56-17.3s7.5-17.15 16.15-17.15z"/><path d="m469.11 85.09-10.84-22.86h-10.09l16.33 31.4v18.33h9.21v-18.33l16.4-31.4h-10.17z"/><path d="m261 99.23c-.9-.92-1.83-1.86-2.78-2.77-.74-.72-1.51-1.43-2.33-2.11a26.82 26.82 0 0 0 -17.73-6.83h-.72a28.91 28.91 0 0 0 -8.18 1.1 15.29 15.29 0 0 0 3.66 8.13 21 21 0 0 1 4.52-.46h.72c6.11.17 9.79 2.57 13.39 5.92l6.68 6.62a36.1 36.1 0 0 0 5.47 4.26h6.45v-6.5a22.34 22.34 0 0 1 -5.48-3.78c-1.24-1.09-2.44-2.3-3.67-3.58z"/><path d="m253.57 106.5c-1.29-1.3-2.48-2.52-3.68-3.59a17.51 17.51 0 0 1 -11.75 0 18.7 18.7 0 0 1 -2.8-1.29l-1.42-.79c-.37-.3-.74-.6-1.08-.93a14.8 14.8 0 0 1 -1.11-1.13c-.22-.23-.43-.48-.64-.73s-.3-.39-.44-.59a16.59 16.59 0 0 1 -1.83-3.23 13.1 13.1 0 0 1 -.75-2 16.27 16.27 0 0 1 -.5-2c-.06-.32-.11-.64-.15-1a14.9 14.9 0 0 1 -.12-1.65c0-.21 0-.42 0-.63a17.14 17.14 0 0 1 5-12c.31-.29.62-.57 1-.83a17.47 17.47 0 0 1 2.14-1.45 13.73 13.73 0 0 1 1.67-.84c.36-.16.75-.32 1.13-.46l.82-.28a14.88 14.88 0 0 1 2-.49 16.34 16.34 0 0 1 3.24-.3 17.15 17.15 0 0 1 12.06 5 17.47 17.47 0 0 1 2.64 19.71c1.1 1 2.12 2.07 3.11 3.07 1.22 1.25 2.36 2.41 3.5 3.45a25.13 25.13 0 0 0 4.5-14.47 25.73 25.73 0 0 0 -9.05-19.57 25.14 25.14 0 0 0 -16.68-6.45 26.61 26.61 0 0 0 -6.25.72 23.78 23.78 0 0 0 -2.8.83 25.19 25.19 0 0 0 -7.83 4.5.72.72 0 0 0 -.29.25 26.57 26.57 0 0 0 -9.15 19.43 27 27 0 0 0 .61 5.73c.12.57.26 1.15.43 1.71a25.24 25.24 0 0 0 4 8.17c.31.43.65.86 1 1.26a.81.81 0 0 0 .25.29 25.45 25.45 0 0 0 5.24 4.63 24.68 24.68 0 0 0 5.72 3 23.08 23.08 0 0 0 2.8.84 25.61 25.61 0 0 0 18.68-2.69c-1.13-1.07-2.2-2.16-3.22-3.2z"/></g></svg>