<svg viewBox="0 0 278 167" xmlns="http://www.w3.org/2000/svg"><g fill="#67c4c4"><path d="m19.56 153.12c0-6.41-3.8-10.27-10.08-10.27h-8.89v20.61h8.89c6.22 0 10.08-3.6 10.08-10.34zm-11.06 5.76h-2.5v-11.39h2.5c3.67 0 5.69 1.84 5.69 5.57 0 4.12-1.63 5.69-5.69 5.82z"/><path d="m39.06 148.67c0-4.12-3.6-5.82-7.2-5.82h-10.53v20.61h5.36v-7.46h4.12c2.49 0 2.82 2.09 2.95 4.19a9.84 9.84 0 0 0 .65 3.27h5.3c-.72-.72-.78-3.73-.85-4.65-.2-2-.85-4.38-3-4.9v-.07a5.3 5.3 0 0 0 3.2-5.17zm-7.86 3.14h-4.51v-4.64h4.31c1.5 0 2.68.72 2.68 2.22a2.2 2.2 0 0 1 -2.48 2.42z"/><path d="m40.89 142.85v12.15c0 6 2.75 9 9 9s9-2.95 9-9v-12.1h-5.44v12.43c0 2.68-1 4-3.6 4s-3.6-1.31-3.6-4v-12.48z"/><path d="m84.2 163.46v-20.61h-7.85l-3.6 13.74h-.06l-3.54-13.74h-7.92v20.61h5.11v-15.64l4.38 15.64h4.06l4.32-15.64h.06v15.64z"/><path d="m85.9 157.64c0 3.79 3.21 6.28 6.87 6.28a9 9 0 0 0 6-2.16l1.43 1.7h6l-4.32-5a9.23 9.23 0 0 0 2.29-5h-4.33a4.87 4.87 0 0 1 -.72 2l-2.12-2.6a5.53 5.53 0 0 0 3.53-5.1c0-3.28-2.75-5.3-5.82-5.3s-5.89 2-5.89 5.23a5.74 5.74 0 0 0 1.83 3.93c-2.52 1.17-4.75 3.07-4.75 6.02zm8.83-11.72a1.57 1.57 0 0 1 1.77 1.57c0 1.25-.92 2-1.9 2.56-.65-.79-1.44-1.51-1.44-2.62a1.54 1.54 0 0 1 1.57-1.51zm-1.7 8.9 3.08 3.67a4.72 4.72 0 0 1 -2.75 1.44 2.55 2.55 0 0 1 -2.68-2.36c0-1.24 1.37-2.29 2.32-2.75z"/><path d="m123.52 148c0-4.25-3.86-5.17-7.46-5.17h-9.61v20.61h9.87c4.45 0 8.05-1.51 8.05-6.41a4.92 4.92 0 0 0 -3.53-4.84 4.65 4.65 0 0 0 2.68-4.19zm-11.71-1h4.19c1.11 0 2.16.45 2.16 2a2 2 0 0 1 -2.16 2h-4.19zm4.32 12.17h-4.32v-4.78h4.32c1.63 0 2.88.65 2.88 2.42s-1.18 2.4-2.88 2.4z"/><path d="m131.7 142.85-7.65 20.61h5.49l1.31-3.67h7.15l1.31 3.67h5.56l-7.65-20.61zm.39 13 2.29-7.19h.07l2.29 7.19z"/><path d="m153.36 159.73c-2.29 0-3.8-.72-3.93-3.21h-5.36c.06 5.3 4.25 7.4 9 7.4 4.51 0 9-1.7 9-6.87 0-3.73-3-5.17-6-6s-6-1.17-6-2.75c0-1.3 1.44-1.76 2.56-1.76 1.63 0 3.4.65 3.33 2.48h5.37c0-4.64-4.12-6.6-8.25-6.6-3.86 0-8.37 1.76-8.37 6.28 0 3.73 3.07 5.1 6 5.89s5.89 1.17 5.89 3c.03 1.62-1.6 2.14-3.24 2.14z"/><path d="m171.41 159.73c-2.22 0-3.73-.72-3.86-3.21h-5.36c0 5.3 4.19 7.4 9 7.4 4.52 0 9-1.7 9-6.87 0-3.73-3-5.17-6-6s-6-1.17-6-2.75c0-1.3 1.44-1.76 2.62-1.76 1.64 0 3.4.65 3.27 2.48h5.43c-.06-4.64-4.19-6.6-8.31-6.6-3.86 0-8.37 1.76-8.37 6.28 0 3.73 3.07 5.1 6 5.89s5.95 1.17 5.95 3c-.03 1.62-1.73 2.14-3.37 2.14z"/><path d="m187.05 142.85-7.72 20.61h5.5l1.3-3.67h7.2l1.24 3.67h5.63l-7.72-20.61zm.33 13 2.35-7.19h.07l2.29 7.19z"/><path d="m218.32 148.67c0-4.12-3.59-5.82-7.19-5.82h-10.54v20.61h5.41v-7.46h4c2.48 0 2.87 2.09 3 4.19.07.59.14 2.61.59 3.27h5.3c-.72-.72-.78-3.73-.85-4.65-.13-2-.78-4.38-3-4.9v-.07a5.35 5.35 0 0 0 3.28-5.17zm-7.85 3.14h-4.47v-4.64h4.25c1.51 0 2.75.72 2.75 2.22a2.23 2.23 0 0 1 -2.53 2.42z"/><path d="m236.97 158.88h-11.32v-3.93h10.08v-4.18h-10.08v-3.6h11.06v-4.32h-16.42v20.61h16.68z"/><path d="m251.5 155.54-7.2-12.69h-5.5v20.61h5.04v-12.83h.07l7.13 12.83h5.56v-20.61h-5.1z"/><path d="m264.71 142.85-7.71 20.61h5.5l1.31-3.67h7.19l1.25 3.67h5.62l-7.72-20.61zm.33 13 2.35-7.19 2.29 7.19z"/><path d="m86.82 16.64-24.08 30.29a1.86 1.86 0 0 0 -.26.53l-5.89 28.07h-26a1 1 0 0 0 -.85.39l-22.74 23.49a1.15 1.15 0 0 0 -.26.59l-6.55 27.93a1.26 1.26 0 0 0 1.18 1.51h92.38a1.21 1.21 0 0 0 1.25-1.25v-39.64l20.61-1.44-3.47 17.89v.26c0 .07.06.14.06.2s.07.33.2.46.13.13.2.2.06.13.13.19l18.51 11a2.21 2.21 0 0 0 .66.13h.26l66.54-13.21-3.54 13.67a1.28 1.28 0 0 0 .85 1.51l60.59 19.1a.67.67 0 0 0 .33.07.89.89 0 0 0 .45-.07l14-5.69a1.34 1.34 0 0 0 .78-.92l6-36.44v-.13c0-.07.07-.13.07-.2a1.23 1.23 0 0 0 -.46-.78v-.05h-.13c-.13-.06-.27-.19-.4-.26l-47.1-11.32a1.14 1.14 0 0 0 -.79.07l-8.77 3.53 3.8-40.11c0-.06-.07-.06-.07-.13a1 1 0 0 0 -.26-.72c-.06-.06 0-.13-.06-.19h.01c-.06-.07-.06-.13-.13-.13l-18.52-11a1.28 1.28 0 0 0 -.85-.14l-13.5 1.85-.2-22.9a1.14 1.14 0 0 0 -.85-1.12l-24.88-8.37c-.07-.07-.13 0-.26 0s-.2-.13-.33-.07l-76.88 12.89a1.23 1.23 0 0 0 -.78.46zm5.69 110.36h-89.57l6.09-26 22.11-23h24.93l-.2 1.18a.06.06 0 0 1 -.06.06.89.89 0 0 0 .13.46.54.54 0 0 0 .06.3c0 .07.07.07.07.13s.06.07.06.07a.26.26 0 0 0 .2.06.58.58 0 0 0 .33.26l24.66 8.77a.77.77 0 0 0 .39.07h.07l10.73-.72zm38.49-12.68-16.23-9.68 3.39-17.64 18.19-1.24-2 10.54zm125 21.46-58.15-18.38 3.53-13.68 17-3.4a1.25 1.25 0 0 0 1-1.11l.72-7.33 41.55 10-3.65 21.54zm13.88-5-11.32 4.58 5.62-33.56 11.32-4.58zm-39.88-45.57 43 10.34-2.56 1-7.52 3.08-42.63-10.23.06-.33zm-25.61-48.81 15.11 9-28.39 3.86-.07-11zm-14.2 45.67h.07c.06 0 .13-.07.19-.07s.26-.06.4-.13l.06-.06c0-.07.07-.07.13-.13s.07-.14.13-.27.2-.26.2-.39v-.2l-.26-29.11 13.15-1.77 17.53-2.42-3.86 40.57v.06l-.06 1.25-.87 8.7-83.55 16.62 5.43-29.18zm-24.27-75.9 22.44 7.59.2 23.43.13 13.47.19 25.78.07 2.62-24.34-9.36zm9.94 70.53 8.64 3.3-46.72 3.21-20.78 1.34-23.31 1.57-11.78.79-19-6.74 100.3-8.37zm-12.43-70.7-1.31 63.46-49.59 4.12-53.91 4.5 6.21-29.84 23.62-29.7z"/></g></svg>