<?xml version="1.0" standalone="no"?>
<!DOCTYPE svg PUBLIC "-//W3C//DTD SVG 20010904//EN"
 "http://www.w3.org/TR/2001/REC-SVG-20010904/DTD/svg10.dtd">
<svg version="1.0" xmlns="http://www.w3.org/2000/svg"
 width="1200.000000pt" height="1200.000000pt" viewBox="0 0 1200.000000 1200.000000"
 preserveAspectRatio="xMidYMid meet">
<metadata>
Created by potrace 1.11, written by Peter Selinger 2001-2013
</metadata>
<g transform="translate(0.000000,1200.000000) scale(0.100000,-0.100000)"
fill="#000000" stroke="none">
<path d="M2282 7199 c-40 -10 -105 -35 -145 -56 -72 -37 -164 -125 -795 -765
l-76 -78 404 3 c355 2 409 4 435 19 17 9 80 66 140 128 103 105 164 149 225
163 21 5 240 10 336 8 l31 -1 0 -723 c0 -764 0 -772 46 -821 52 -55 74 -59
317 -60 l225 -1 1 1055 c1 1143 4 1090 -53 1127 -25 17 -67 18 -523 19 -444 0
-503 -1 -568 -17z"/>
<path d="M8603 7203 c-60 -28 -63 -45 -63 -326 l0 -256 1166 0 c686 0 1164 4
1162 9 -4 14 -385 395 -438 440 -89 74 -166 114 -265 136 -16 4 -368 8 -782 9
-627 2 -756 0 -780 -12z"/>
<path d="M4372 7197 c-8 -9 -11 -123 -9 -363 l2 -349 29 -60 c16 -33 40 -73
54 -90 13 -16 358 -367 766 -778 407 -412 743 -753 744 -758 2 -5 9 -9 16 -9
15 0 1515 1511 1557 1569 30 40 55 100 65 155 5 25 6 638 2 684 -4 42 -57 -3
-333 -282 -789 -799 -1274 -1286 -1282 -1286 -5 0 -304 298 -665 663 -861 869
-909 917 -923 917 -7 0 -17 -6 -23 -13z"/>
<path d="M8536 5962 c0 -279 4 -529 8 -557 10 -70 68 -185 118 -237 54 -54
120 -99 184 -124 47 -18 93 -19 1059 -21 617 -2 1024 1 1045 7 19 5 48 11 64
14 16 3 67 24 115 47 84 41 94 50 458 413 205 204 373 374 373 378 0 10 -676
7 -724 -4 -81 -18 -162 -64 -238 -136 -41 -39 -99 -84 -129 -99 l-54 -28 -805
-3 c-604 -2 -811 0 -833 9 -16 7 -33 24 -39 38 -7 16 -12 154 -13 366 -1 224
-5 349 -12 366 -7 15 -27 37 -45 50 -32 24 -38 24 -283 26 l-250 2 1 -507z"/>
<path d="M4362 5601 c-1 -439 2 -580 11 -583 7 -2 123 -4 258 -3 217 1 249 3
273 18 15 10 31 29 36 43 6 14 10 127 10 252 0 193 -3 233 -18 264 -10 22
-126 147 -284 307 -147 148 -272 272 -277 275 -5 4 -9 -227 -9 -573z"/>
<path d="M7321 5903 c-158 -161 -280 -293 -289 -313 -20 -46 -23 -482 -4 -518
30 -53 44 -55 314 -56 157 -1 252 3 256 9 8 12 9 1155 2 1155 -3 0 -129 -125
-279 -277z"/>
<path d="M1203 6135 c-29 -7 -82 -27 -118 -46 -59 -30 -122 -90 -558 -532
-271 -274 -494 -505 -495 -514 -2 -8 1 -18 6 -22 14 -8 627 -5 672 3 56 11 71
16 140 49 55 27 98 65 267 234 116 116 219 210 240 220 35 17 90 18 679 21
l641 3 -1 297 -1 297 -710 1 c-511 0 -725 -3 -762 -11z"/>
<path d="M3681 5442 c-63 -31 -75 -60 -81 -185 -3 -62 -3 -141 0 -177 l5 -65
236 1 c263 0 280 4 319 61 24 35 25 44 28 210 l3 173 -238 0 c-207 0 -242 -2
-272 -18z"/>
<path d="M7870 5449 c-33 -13 -70 -48 -81 -76 -7 -19 -13 -233 -10 -333 l1
-25 232 1 c128 0 244 4 258 8 38 12 79 56 89 96 5 19 9 104 9 188 l-1 152
-236 -1 c-132 0 -247 -5 -261 -10z"/>
</g>
</svg>
