<?xml version="1.0" standalone="no"?>
<!DOCTYPE svg PUBLIC "-//W3C//DTD SVG 20010904//EN"
 "http://www.w3.org/TR/2001/REC-SVG-20010904/DTD/svg10.dtd">
<svg version="1.0" xmlns="http://www.w3.org/2000/svg"
 width="260.000000pt" height="260.000000pt" viewBox="0 0 260.000000 260.000000"
 preserveAspectRatio="xMidYMid meet">
<metadata>
Created by potrace 1.11, written by Peter Selinger 2001-2013
</metadata>
<g transform="translate(0.000000,260.000000) scale(0.100000,-0.100000)"
fill="#000000" stroke="none">
<path d="M0 1300 l0 -1300 650 0 650 0 0 1300 0 1300 -650 0 -650 0 0 -1300z
m400 447 l5 -297 300 300 300 300 112 0 c62 0 113 -3 113 -7 0 -5 -151 -159
-335 -343 l-336 -336 343 -378 c189 -208 344 -385 346 -392 3 -11 -19 -14
-112 -14 l-115 0 -287 323 c-158 177 -291 326 -295 331 -5 5 -14 4 -23 -4 -13
-10 -16 -59 -18 -329 l-3 -316 -85 0 -85 0 -3 720 c-1 396 0 726 3 733 3 9 27
12 87 10 l83 -3 5 -298z"/>
<path d="M1812 2055 c-88 -20 -149 -51 -202 -105 -58 -57 -89 -121 -103 -209
-19 -123 28 -247 120 -318 57 -44 93 -64 275 -148 140 -65 175 -85 212 -125
53 -56 71 -112 61 -185 -19 -142 -114 -231 -260 -243 -152 -12 -260 65 -306
216 -12 42 -14 43 -45 37 -18 -3 -56 -12 -84 -21 -50 -15 -51 -16 -45 -47 13
-64 77 -180 125 -228 163 -163 477 -169 651 -12 98 89 141 190 142 333 1 220
-77 303 -428 455 -122 53 -147 67 -188 104 -41 37 -57 73 -57 126 0 118 82
201 210 212 117 11 206 -39 276 -155 5 -8 134 84 134 95 0 23 -90 129 -138
161 -91 62 -231 84 -350 57z"/>
</g>
</svg>
