<svg id="Layer_1" xmlns="http://www.w3.org/2000/svg" viewBox="0 0 720 262.938"><style>.st0{fill:#fff}.st1,.st2{fill:none;stroke:#f26522;stroke-width:4;stroke-miterlimit:10}.st2{fill:#fff;stroke:#f16522}.st3{fill:#231f20}</style><path class="st0" d="M228.648 156.157c-.1.193-.205.398-.302.591h413.012v-.591h-412.71z"/><path class="st1" d="M228.648 156.157c-.1.193-.205.398-.302.591h413.012v-.591h-412.71z"/><path class="st2" d="M205.15 156.142H78.603v.621h126.233c.104-.204.211-.413.314-.621z"/><path class="st3" d="M200.667 204.465H186.49l27.283-56.389-22.125-55.056h15.257l11.062 31.216a76.293 76.293 0 0 1 1.682 5.811 61.719 61.719 0 0 1 1.178 6.004c.551-2.112 1.866-5.48 3.943-10.101l.315-.764 14.876-32.166h14.941l-54.235 111.445z"/><g><path class="st3" d="M77.416 155.643V62.576h23.457c6.697 0 11.643.359 14.844 1.085 3.199.718 5.925 1.907 8.17 3.559 2.881 2.117 5.12 4.895 6.703 8.322 1.592 3.437 2.387 7.232 2.387 11.382 0 4.962-1.145 9.105-3.433 12.429-2.289 3.333-5.615 5.646-9.979 6.962 5.424.845 9.696 3.316 12.806 7.404 3.12 4.09 4.674 9.25 4.674 15.483 0 3.774-.654 7.354-1.971 10.736-1.312 3.403-3.178 6.281-5.593 8.651-2.543 2.588-5.701 4.412-9.472 5.466-3.771 1.064-10.108 1.589-19.009 1.589H77.416zm14.812-53.778h5.783c7.205 0 12.304-.988 15.288-2.957 2.991-1.971 4.481-5.288 4.481-9.95 0-5.081-1.375-8.652-4.13-10.712-2.754-2.048-7.968-3.081-15.639-3.081h-5.783v26.7zm0 41.122h5.211c5.299 0 9.262-.202 11.89-.627 2.626-.42 4.701-1.166 6.228-2.229 1.866-1.225 3.307-2.88 4.325-4.956 1.017-2.08 1.524-4.366 1.524-6.864 0-2.969-.613-5.557-1.842-7.759-1.228-2.203-2.987-3.916-5.277-5.145-1.44-.72-3.082-1.252-4.926-1.592-1.844-.34-4.292-.508-7.343-.508h-9.79v29.68zm61.547-49.579v33.947c0 5.854 1.208 10.048 3.625 12.59 2.414 2.544 6.335 3.813 11.761 3.813 5.424 0 9.344-1.27 11.759-3.813 2.416-2.542 3.622-6.736 3.622-12.59l.009-34.227c-.169.026 3.277-.098 3.28-.095 7.948 19.896 5.995 16.217 10.814 30.129.312.907.556 1.81.737 2.688 1.98 9.696-3.737 17.706-7.972 22.482-4.621 5.216-11.995 7.824-22.122 7.824-10.298 0-17.759-2.579-22.379-7.762-4.616-5.159-6.926-13.556-6.926-25.173V93.408h13.792zm104.085 62.108v-93.07h23.458c6.696 0 11.641.357 14.841 1.081 3.203.72 5.923 1.905 8.171 3.562 2.883 2.117 5.119 4.892 6.706 8.325 1.592 3.436 2.386 7.225 2.386 11.38 0 4.958-1.142 9.101-3.432 12.424-2.288 3.333-5.617 5.649-9.98 6.966 5.423.846 9.695 3.316 12.806 7.404 3.117 4.089 4.674 9.249 4.674 15.482 0 3.771-.655 7.353-1.971 10.74-1.314 3.395-3.181 6.281-5.593 8.643-2.544 2.588-5.7 4.413-9.472 5.468-3.772 1.061-10.111 1.595-19.008 1.595H257.86zm14.813-53.782h5.786c7.202 0 12.303-.99 15.287-2.956 2.99-1.975 4.485-5.288 4.485-9.949 0-5.086-1.381-8.657-4.136-10.716-2.753-2.05-7.966-3.079-15.636-3.079h-5.786v26.7zm0 41.126h5.211c5.299 0 9.261-.209 11.887-.627 2.628-.425 4.707-1.174 6.234-2.237 1.862-1.226 3.303-2.878 4.321-4.949 1.017-2.079 1.525-4.37 1.525-6.87 0-2.967-.613-5.552-1.842-7.756-1.231-2.202-2.99-3.913-5.275-5.148-1.444-.72-3.085-1.249-4.93-1.589-1.841-.34-4.29-.508-7.342-.508h-9.79v29.684zm44.817-73.673c0-2.336.856-4.348 2.576-6.039 1.711-1.697 3.761-2.543 6.131-2.543 2.459 0 4.504.817 6.135 2.447 1.631 1.629 2.449 3.676 2.449 6.135 0 2.457-.828 4.521-2.48 6.195-1.654 1.679-3.683 2.509-6.104 2.509-2.37 0-4.42-.853-6.131-2.573-1.72-1.716-2.576-3.761-2.576-6.131zm1.845 86.329V106.92h13.794v48.596h-13.794z"/><path class="st3" d="M378.845 92.839l-20.211.05-.478-22.824h-13.678v22.824h-25.052v11.961l25.052.112v50.555h13.678v-50.555l12.9-.016c1.065-4.58 3.427-9.202 7.789-12.107z"/><path class="st3" d="M369.78 142.189l11.441-6.229c.854 3.013 2.418 5.301 4.712 6.866 2.289 1.569 5.23 2.356 8.823 2.356 3.104 0 5.526-.72 7.279-2.132 1.77-1.422 2.644-3.356 2.644-5.817 0-3.261-3.14-6.059-9.415-8.394-2.116-.762-3.739-1.395-4.892-1.903-6.438-2.673-10.941-5.383-13.507-8.139-2.565-2.756-3.839-6.105-3.839-10.047 0-5.375 2.099-9.743 6.323-13.092 4.213-3.347 9.79-5.023 16.753-5.023 4.649 0 8.649.856 11.979 2.576 3.329 1.717 5.747 4.163 7.272 7.344l-9.78 6.739c-.73-1.908-1.984-3.421-3.79-4.547-1.792-1.122-3.887-1.687-6.261-1.687-2.628 0-4.734.628-6.319 1.878-1.589 1.252-2.39 2.912-2.39 4.988 0 3.14 3.559 5.997 10.681 8.585 2.241.803 3.985 1.465 5.224 1.97 5.544 2.207 9.515 4.696 11.914 7.467 2.397 2.777 3.592 6.247 3.592 10.395 0 6.021-2.192 10.731-6.544 14.142-4.375 3.419-10.394 5.123-18.051 5.123-5.906 0-10.798-1.105-14.697-3.305-3.896-2.212-6.946-5.573-9.152-10.114zm50.146 5.12c0-2.323.802-4.329 2.413-5.972 1.611-1.662 3.584-2.484 5.913-2.484 2.328 0 4.303.822 5.913 2.484 1.608 1.643 2.417 3.649 2.417 5.972 0 2.281-.809 4.226-2.417 5.82-1.61 1.587-3.585 2.388-5.913 2.388-2.329 0-4.302-.801-5.913-2.388-1.612-1.594-2.413-3.539-2.413-5.82zm57.327-5.972c-1.882.546-6.092 1.555-8.279 1.555-6.019 0-10.743-1.795-14.152-5.378-3.412-3.583-5.117-8.503-5.117-14.773 0-6.02 1.689-10.85 5.084-14.497 3.393-3.649 7.904-5.467 13.545-5.467 2.585 0 6.512.976 8.822 1.75 1.571-3.777 7.709-10.08 7.709-10.08a28.719 28.719 0 0 0-7.375-2.831c-2.63-.609-5.508-.919-8.647-.919-9.956 0-18.023 2.976-24.184 8.933-6.171 5.956-9.258 13.786-9.258 23.484 0 9.585 2.978 17.384 8.935 23.395 5.953 6.024 13.655 9.028 23.109 9.028 3.257 0 6.337-.356 9.249-1.076 2.9-.72 5.623-1.803 8.17-3.247v-.268c-3.841-3.03-5.381-4.959-7.611-9.609z"/><path class="st3" d="M477.697 122.995c0-4.406.828-8.57 2.517-12.496 1.668-3.916 4.069-7.404 7.205-10.455a32.404 32.404 0 0 1 10.683-6.928c4.025-1.611 8.246-2.416 12.651-2.416 4.532 0 8.803.805 12.811 2.416 4 1.612 7.589 3.981 10.773 7.118 3.171 3.094 5.595 6.589 7.24 10.494a31.004 31.004 0 0 1 2.49 12.267c0 4.441-.83 8.619-2.453 12.517-1.631 3.9-4.023 7.365-7.156 10.363-3.306 3.178-6.961 5.587-10.991 7.217-4.025 1.638-8.266 2.444-12.715 2.444-4.367 0-8.56-.806-12.587-2.444-4.027-1.63-7.609-3.993-10.747-7.089-3.175-3.126-5.599-6.647-7.242-10.552-1.651-3.898-2.479-8.052-2.479-12.456zm51.813.118c0-5.593-1.811-10.327-5.408-14.2-3.595-3.881-8.018-5.818-13.22-5.818-5.175 0-9.57 1.938-13.199 5.818-3.609 3.873-5.435 8.607-5.435 14.2 0 5.594 1.826 10.341 5.435 14.216 3.629 3.873 8.024 5.81 13.199 5.81 5.169 0 9.565-1.938 13.193-5.81 3.61-3.875 5.435-8.622 5.435-14.216zm31.444 32.403h-13.795V95.248h12.965v9.848c2.754-4.194 5.878-7.254 9.385-9.183 3.485-1.929 7.61-2.889 12.354-2.889 4.71 0 8.607.979 11.704 2.953 3.096 1.969 5.442 4.968 7.057 8.996 3.171-4.155 6.557-7.183 10.133-9.093 3.582-1.903 7.664-2.856 12.241-2.856 3.978 0 7.455.724 10.424 2.189 2.962 1.463 5.272 3.593 6.933 6.387.756 1.315 1.325 2.886 1.685 4.707.355 1.821.545 4.428.545 7.818v41.392H628.78V124.55c0-8.092-.854-13.42-2.566-15.984-1.728-2.565-4.792-3.848-9.198-3.848-5.422 0-9.287 1.728-11.598 5.178-2.304 3.458-3.462 9.508-3.462 18.157v27.463h-13.923V124.55c0-7.457-.898-12.628-2.699-15.506-1.797-2.887-4.907-4.325-9.32-4.325-2.713 0-5.188.609-7.434 1.842-2.248 1.23-4.031 2.925-5.337 5.083-.854 1.4-1.442 3.121-1.78 5.155-.344 2.038-.509 5.781-.509 11.254v27.463z"/></g><g><path class="st3" d="M223.546 167.262h4.032v9.177h12.235v-9.177h4.032v24.854h-4.032v-12.062h-12.235v12.062h-4.032v-24.854zm24.677 32.431l4.415-8.968-5.909-14.703h4.067l2.955 8.343a16.13 16.13 0 0 1 .765 3.163c.244-.938.695-1.912 1.147-2.92l3.963-8.586h3.997l-11.609 23.671h-3.791zm21.062-21.029c.869-2.051 2.815-3.197 5.457-3.197 4.241 0 7.195 3.406 7.195 8.585 0 5.492-2.851 8.725-7.334 8.725-2.259 0-3.997-.903-5.318-2.746v2.086H265.6v-26.312h3.685v12.859zm4.414 10.844c2.781 0 4.38-1.911 4.38-5.353 0-3.406-1.703-5.423-4.484-5.423-2.746 0-4.415 1.912-4.415 5.284.001 3.408 1.947 5.492 4.519 5.492zm19.811-14.042c1.043 0 2.051.243 3.024.729l-1.321 3.129c-.695-.487-1.425-.661-2.259-.661-2.607 0-3.441 2.051-3.441 6.396v7.057h-3.685v-16.129h3.685v2.607c.799-2.12 2.05-3.128 3.997-3.128zm7.124-8.69c1.286 0 2.294.974 2.294 2.294 0 1.321-1.008 2.329-2.294 2.329s-2.329-1.077-2.329-2.329c0-1.251 1.043-2.294 2.329-2.294zm-1.842 9.246h3.685v16.094h-3.685v-16.094zm24.087-10.219v26.312h-3.684v-2.086c-1.321 1.843-3.059 2.746-5.318 2.746-4.484 0-7.334-3.232-7.334-8.725 0-5.179 2.989-8.585 7.23-8.585 2.642 0 4.554 1.146 5.423 3.197v-12.86h3.683zm-7.995 12.93c-2.781 0-4.484 2.017-4.484 5.423 0 3.441 1.634 5.353 4.415 5.353 2.572 0 4.484-2.085 4.484-5.491 0-3.373-1.669-5.285-4.415-5.285zm43.689-2.294c-.209 1.182-.591 2.294-1.147 3.441l-6.5 13.243-6.5-13.521a19.204 19.204 0 0 1-1.217-3.163c-.035 1.182-.208 2.329-.452 3.441l-2.676 12.235h-3.72l5.875-25.826 7.334 15.606c.208.452.66 1.564 1.355 3.372.486-1.391 1.043-2.503 1.425-3.372l7.161-15.606 6.013 25.826h-3.754l-2.746-12.271c-.103-.45-.208-1.562-.451-3.405zm11.294 1.529c1.668-1.634 3.893-2.502 6.222-2.502 2.398 0 4.588.868 6.291 2.537 1.669 1.634 2.607 3.754 2.607 6.083 0 2.398-.903 4.519-2.572 6.117-1.738 1.669-3.928 2.572-6.326 2.572a8.869 8.869 0 0 1-6.222-2.537c-1.703-1.669-2.607-3.789-2.607-6.152a8.36 8.36 0 0 1 2.607-6.118zm6.257.8c-2.746 0-4.971 2.329-4.971 5.353 0 3.024 2.225 5.354 4.971 5.354 2.711 0 4.97-2.329 4.97-5.354 0-3.024-2.225-5.353-4.97-5.353zm16.335 6.326c0 3.024 1.111 4.38 4.102 4.38 2.989 0 4.102-1.355 4.102-4.38v-9.072h3.685v7.96c0 6.014-2.225 8.794-7.752 8.794-5.631 0-7.82-2.746-7.82-8.794v-7.96h3.685v9.072zm16.854-9.072h3.477v2.642c1.494-2.259 3.406-3.197 6.222-3.197 2.398 0 4.102.765 5.04 2.259.8 1.217.8 2.677.8 4.623v9.768h-3.72v-8.272c0-3.58-.452-5.249-3.511-5.249-1.737 0-3.128.66-3.893 1.808-.661.974-.73 2.363-.73 4.38v7.334h-3.685v-16.096zm21.306 3.233h-2.815v-3.232h2.815v-6.083h3.685v6.083h2.815v3.232h-2.815v12.861h-3.685v-12.861zm11.679-12.479c1.286 0 2.294.974 2.294 2.294 0 1.321-1.008 2.329-2.294 2.329s-2.329-1.077-2.329-2.329c0-1.251 1.043-2.294 2.329-2.294zm-1.843 9.246h3.685v16.094h-3.685v-16.094zm8.932 0h3.477v2.642c1.494-2.259 3.406-3.197 6.222-3.197 2.398 0 4.102.765 5.04 2.259.8 1.217.8 2.677.8 4.623v9.768h-3.72v-8.272c0-3.58-.451-5.249-3.511-5.249-1.737 0-3.128.66-3.893 1.808-.661.974-.73 2.363-.73 4.38v7.334h-3.685v-16.096zm27.353 23.671c-4.553 0-7.299-2.12-7.334-5.144h3.963c.104 1.355 1.286 2.12 3.441 2.12 3.371 0 4.414-1.495 4.449-4.519l.034-2.121c-1.32 1.843-3.059 2.746-5.318 2.746-4.483 0-7.334-3.232-7.334-8.725 0-5.179 2.989-8.585 7.23-8.585 2.642 0 4.553 1.146 5.422 3.197v-2.642h3.685v15.086c.001 6.016-2.015 8.587-8.238 8.587zm.244-20.96c-2.781 0-4.484 2.017-4.484 5.423 0 3.441 1.634 5.353 4.414 5.353 2.538 0 4.484-2.085 4.484-5.491 0-3.373-1.668-5.285-4.414-5.285zm25.684 6.918c.591 2.225 2.259 3.406 4.797 3.406 2.433 0 3.928-1.46 3.928-3.685 0-2.434-1.843-3.024-4.415-4.275-4.414-2.155-6.848-3.824-6.848-7.578 0-3.997 2.955-6.812 7.474-6.812 3.685 0 6.222 1.495 7.16 4.102l-3.163 1.634c-.973-1.529-2.12-2.26-3.685-2.26-2.189 0-3.545 1.252-3.545 3.129 0 2.398 1.946 3.128 4.727 4.414 4.38 2.017 6.431 3.789 6.431 7.369 0 4.623-3.094 7.682-8.237 7.682-4.241 0-7.021-2.016-7.856-5.631l3.232-1.495zm18.386-7.683c1.668-1.634 3.893-2.502 6.222-2.502 2.398 0 4.588.868 6.291 2.537 1.669 1.634 2.607 3.754 2.607 6.083 0 2.398-.903 4.519-2.572 6.117-1.738 1.669-3.928 2.572-6.326 2.572a8.869 8.869 0 0 1-6.222-2.537c-1.703-1.669-2.607-3.789-2.607-6.152a8.357 8.357 0 0 1 2.607-6.118zm6.257.8c-2.746 0-4.971 2.329-4.971 5.353 0 3.024 2.225 5.354 4.971 5.354 2.711 0 4.97-2.329 4.97-5.354-.001-3.024-2.225-5.353-4.97-5.353zm12.927-12.965h3.685v26.312h-3.685v-26.312zm12.512 19.291c0 3.024 1.113 4.38 4.103 4.38s4.102-1.355 4.102-4.38v-9.072h3.685v7.96c0 6.014-2.225 8.794-7.752 8.794-5.631 0-7.82-2.746-7.82-8.794v-7.96h3.684v9.072zm17.726-5.839h-2.815v-3.232h2.815v-6.083h3.685v6.083h2.815v3.232h-2.815v12.861h-3.685v-12.861zm11.677-12.479c1.286 0 2.294.974 2.294 2.294 0 1.321-1.008 2.329-2.294 2.329s-2.329-1.077-2.329-2.329c0-1.251 1.043-2.294 2.329-2.294zm-1.842 9.246h3.685v16.094h-3.685v-16.094zm10.358 1.946c1.668-1.634 3.893-2.502 6.222-2.502 2.398 0 4.588.868 6.291 2.537 1.669 1.634 2.607 3.754 2.607 6.083 0 2.398-.903 4.519-2.572 6.117-1.738 1.669-3.928 2.572-6.326 2.572a8.869 8.869 0 0 1-6.222-2.537c-1.703-1.669-2.607-3.789-2.607-6.152a8.36 8.36 0 0 1 2.607-6.118zm6.257.8c-2.746 0-4.971 2.329-4.971 5.353 0 3.024 2.225 5.354 4.971 5.354 2.711 0 4.97-2.329 4.97-5.354 0-3.024-2.225-5.353-4.97-5.353zm12.754-2.746h3.477v2.642c1.494-2.259 3.406-3.197 6.222-3.197 2.398 0 4.102.765 5.04 2.259.8 1.217.8 2.677.8 4.623v9.768h-3.72v-8.272c0-3.58-.451-5.249-3.511-5.249-1.737 0-3.128.66-3.893 1.808-.661.974-.73 2.363-.73 4.38v7.334h-3.685v-16.096zm21.653 11.506c.452 1.599 1.669 2.468 3.615 2.468 1.668 0 2.642-.834 2.642-2.12 0-1.669-1.599-1.808-3.823-2.746-3.06-1.286-4.623-2.538-4.623-4.866 0-2.781 2.329-4.832 6.152-4.832 2.537 0 4.345.974 5.145 2.642l-2.607 1.808c-.382-1.008-1.391-1.669-2.677-1.669-1.425 0-2.328.73-2.328 1.843 0 1.564 1.737 1.808 4.24 2.815 2.815 1.112 4.137 2.434 4.137 4.762 0 3.129-2.364 5.145-6.569 5.145-3.129 0-5.18-1.146-6.361-3.58l3.057-1.67z"/></g></svg>