<svg version="1" xmlns="http://www.w3.org/2000/svg" width="533.333" height="533.333" viewBox="0 0 400.000000 400.000000"><path d="M6.9 84.3C4.6 86 3 89.5 3 92.5c0 1.8 1.5 4.2 4.8 7.5 4.8 4.9 246.7 214.1 251.2 217.3 8.1 5.6 17.7-3.3 12.7-11.9-.7-1.2-58.5-51.7-128.6-112.3C24.7 90.8 15.4 83 12.1 83c-2 0-4.3.6-5.2 1.3zM131.6 86.1c-2.9 3.4-3.3 7.4-1.1 10.6 1.3 1.9 245.9 213.9 253.9 220.1 6.4 4.9 14.6 1.2 14.6-6.6 0-2.4-.7-4.8-1.7-6-1-1.1-58.9-51.3-128.7-111.6C148.5 88.8 141.5 83 138 83c-3 0-4.4.6-6.4 3.1zM258.7 85c-3 2.4-4.2 6.6-2.8 10.2.6 1.5 26.6 24.7 63.3 56.4 34.3 29.7 63.6 54.9 65.2 56.2 6.4 4.9 14.6 1.2 14.6-6.6 0-2.4-.7-4.8-1.7-6-1-1.1-30.5-26.8-65.6-57.1-69.4-59.9-66.8-58-73-53.1zM5.8 122c-2.7 2.7-3 3.6-2.5 7.2.3 2.2 1.4 4.9 2.4 5.8 4.4 4.2 209 180.7 211.3 182.3 8.3 5.7 18.1-4.5 12.3-12.9-.7-.9-188.1-163.2-207.6-179.7-8.1-6.8-11.2-7.4-15.9-2.7zM132.7 121c-3.6 2.8-4.5 8.1-2.1 11.9 1.6 2.5 205.8 179.8 212.5 184.5 3.5 2.4 8.5 2 11.4-.9 3.1-3 3.4-9.2.8-12.3-1.8-2-206.1-178.6-211.7-183-3.6-2.7-7.5-2.8-10.9-.2zM261 119.7c-4.8 1.8-7.2 8.1-4.8 12.6.7 1.3 30.3 27.5 65.7 58.1 63.5 54.9 64.4 55.6 68.7 55.6 3.4 0 4.7-.5 6.3-2.6 2.5-3.2 2.7-8.1.6-11.2-1.6-2.2-123.8-108.3-128.4-111.4-2.6-1.8-5.3-2.1-8.1-1.1zM6 157.8c-1.3 1-2.3 3.3-2.7 5.8-.5 3.7-.2 4.6 2.8 7.7 1.9 2 41 36 86.9 75.6 77.1 66.6 83.7 72.1 87 72.1 7.3 0 11.5-8.6 7.3-14.6-.5-.6-34.3-30-75.3-65.4-41-35.4-79.3-68.6-85.2-73.7-9.6-8.3-11.2-9.3-14.7-9.3-2.2 0-4.8.8-6.1 1.8zM133.2 156.7c-2.3.9-4.4 6.4-3.8 9.9.6 2.9 11.1 12.3 84.8 76.1 46.3 40 85.3 73.6 86.7 74.5 6.3 4.3 14.1.5 14.1-6.9 0-2.1-.8-4.7-1.8-5.9-1.3-1.6-118.4-103.2-164-142.2-6.2-5.3-7.8-6.2-11-6.1-2 0-4.3.3-5 .6zM259.2 156.7c-2.3.9-4.4 6.4-3.8 9.8.6 2.8 9.4 10.9 65.2 59.1 35.6 30.8 65.4 56.2 66.3 56.6 3.4 1.4 6.3.7 9.2-2.1 4.1-4.2 4-9-.3-13.5-2.7-2.8-113.2-98.4-124.6-107.9-3.2-2.6-8.4-3.5-12-2zM6.2 194c-4.7 4.4-4.1 10.2 1.6 15.4 2 1.9 31.3 27.3 65.1 56.5C129.7 315 134.7 319 138 319c6 0 10.1-5.5 8.6-11.5-.8-3.1 2.8.1-69.6-62.4-56.6-49-61.7-53.1-65-53.1-2.3 0-4.4.8-5.8 2zM6 230.8c-3.3 3.3-3.9 7.1-1.7 11 .6 1.2 20.7 19.1 44.6 39.7 39.8 34.4 43.8 37.5 47 37.5 4-.1 6.2-1.4 7.9-4.7 1.6-3 1.5-6.4-.4-9.1-.8-1.2-19.8-18-42.2-37.4-22.4-19.3-41.6-36-42.8-37-1.2-1-3.7-2.1-5.7-2.5-3.1-.5-4-.1-6.7 2.5zM6.3 266.5c-2.4 1.7-3.9 7.1-2.8 10.4.3 1.2 11 11.1 23.7 22.1 21.2 18.4 23.4 20 26.9 20 6.8 0 11.2-8.2 7.3-13.8-.9-1.3-11.4-10.8-23.5-21.2-20.1-17.4-22.3-19-25.7-19-2.1 0-4.7.7-5.9 1.5zM5.9 303.9c-5.9 6-2.2 15 6.3 15.1 2.8 0 4.2-.7 6.2-3.1 3.5-4.1 3.4-8.3-.3-12-4-3.9-8.2-3.9-12.2 0z"/></svg>