<svg enable-background="new 0 0 359 72" viewBox="0 0 359 72" xmlns="http://www.w3.org/2000/svg"><g fill="#fff"><path d="m232.1 56.3v8.9h13.4c2.3 0 4.2-1.9 4.2-4.2v-8.9h-13.4c-2.3 0-4.2 1.9-4.2 4.2z"/><path d="m225.2.5-46.8 46.8-46.8-46.8c-.6-.6-1.7-.2-1.7.7v17.7c0 3.1 1.2 5.9 3.3 8.1l45.1 45.1 45.2-45.2c2.1-2.1 3.3-5 3.3-8v-17.7c.1-.9-1-1.4-1.6-.7z"/><path d="m209.3 50.5v11.5c0 1.8 1.4 3.2 3.2 3.2h14.4v-34.7l-15.9 15.9c-1.1 1.1-1.7 2.5-1.7 4.1z"/><path d="m129.9 30.5v34.7h14.6c1.7 0 3-1.3 3-3v-11.8c0-1.5-.6-2.9-1.6-3.9z"/><path d="m107.1 56.3v8.9h13.4c2.3 0 4.2-1.9 4.2-4.2v-8.9h-13.4c-2.3 0-4.2 1.9-4.2 4.2z"/><path d="m313.1 5.8c-1.5-1.5-3.3-2.8-5.1-3.9-1.9-1-3.5-1.4-4.2-1.5-1.5-.2-3.6-.4-6.7-.4h-38.9c-1.8 0-3.3 1.5-3.3 3.3v14.3h70z"/><path d="m338.4 39.4c-3.7 0-7.2 1.4-9.8 4.1l-1.3 1.3c-1.8 1.8-4.2 2.8-6.8 2.8h-45.5c-1.4 0-2.6-1.2-2.6-2.6v-18.8c0-2.2-1.8-4-4-4h-13.6v29.1c0 7.6 6.2 13.8 13.8 13.8h54.9c5.3 0 10.3-2.1 14-5.8l19.9-19.9z"/><path d="m28.5 35.8-27.8 27.9-.3.3v1.2h17.6c3.9 0 7.7-1.5 10.5-4.3l9.3-9.3c1.4-1.4 3.3-2.2 5.4-2.2h36.3v-17.7h-41c-3.8 0-7.3 1.5-10 4.1z"/><path d="m98.4 0h-26.5c-4.8 0-9.4 1.9-12.8 5.3l-21.8 21.8h22.4c1.6 0 3.1-.6 4.3-1.8l5.1-5.1c1.7-1.7 3.9-2.6 6.3-2.6h8.9v42.3c0 2.9 2.4 5.3 5.3 5.3h12.3v-61.7c0-2-1.6-3.5-3.5-3.5z"/></g></svg>